<svg width="517" height="300" viewBox="0 0 517 300" fill="none" xmlns="http://www.w3.org/2000/svg">
<rect width="517" height="300" fill="white"/>
<g clip-path="url(#clip0)">
<path d="M122.829 158.593L131.449 167.567L93.5436 186.579C93.5436 186.579 88.5841 189.058 86.2224 185.162C76.7755 169.811 122.829 158.593 122.829 158.593" fill="#256382"/>
<path d="M92.4808 175.361C92.4808 175.361 85.2776 178.077 86.5765 183.154C87.9935 188.468 93.7797 185.28 93.7797 185.28L129.796 167.567C129.796 167.567 127.788 161.899 131.449 158.12L92.4808 175.361" fill="#D9E3E8"/>
<path d="M98.6213 122.222L133.102 157.766L92.3628 174.652L66.266 131.433L98.6213 122.222Z" fill="#42ADE2"/>
<path d="M129.678 162.017L105.588 172.408L129.205 160.954L129.678 162.017Z" fill="#94989B"/>
<path d="M129.323 165.087L103.699 176.305L128.851 164.024L129.323 165.087Z" fill="#94989B"/>
<path d="M129.56 166.859L96.85 181.855L129.087 165.796L129.56 166.859Z" fill="#94989B"/>
<path d="M86.1042 185.044C82.0894 176.187 92.3628 174.652 92.3628 174.652L66.2659 131.433C66.2659 131.433 60.3617 131.315 60.3617 137.81C60.3617 140.526 61.5425 142.533 61.5425 142.533L86.1042 185.044Z" fill="#428BC1"/>
<path d="M68.2734 149.736L59.6532 158.711L97.5585 177.722C97.5585 177.722 102.518 180.202 104.88 176.305C114.327 160.954 68.2734 149.736 68.2734 149.736" fill="#547725"/>
<path d="M98.5032 166.504C98.5032 166.504 105.706 169.22 104.407 174.298C102.99 179.612 97.3223 176.423 97.3223 176.423L61.3064 158.711C61.3064 158.711 63.3138 153.043 59.6532 149.264L98.5032 166.504Z" fill="#D9E3E8"/>
<path d="M92.4808 113.366L58 148.909L98.7394 165.796L124.836 122.576L92.4808 113.366Z" fill="#83BF4F"/>
<path d="M61.7787 152.098L85.3958 163.552L61.3064 153.161L61.7787 152.098Z" fill="#94989B"/>
<path d="M62.2512 155.168L87.2852 167.449L61.6608 156.231L62.2512 155.168Z" fill="#94989B"/>
<path d="M62.0149 156.939L94.134 172.999L61.4244 158.002L62.0149 156.939Z" fill="#94989B"/>
<path d="M104.998 176.187C109.013 167.331 98.7394 165.796 98.7394 165.796L124.836 122.577C124.836 122.577 130.74 122.459 130.74 128.953C130.74 131.669 129.56 133.677 129.56 133.677L104.998 176.187Z" fill="#699635"/>
<path d="M124.954 142.415L132.157 149.972L100.156 165.914C100.156 165.914 95.9053 167.921 93.8978 164.733C86.1042 151.862 124.954 142.415 124.954 142.415Z" fill="#412E70"/>
<path d="M99.3298 156.585C99.3298 156.585 93.1893 158.829 94.3702 163.198C95.551 167.685 100.393 164.969 100.393 164.969L130.74 149.972C130.74 149.972 129.087 145.249 132.157 142.061L99.3298 156.585Z" fill="#D9E3E8"/>
<path d="M104.526 111.713L133.574 141.706L99.2117 155.995L77.1298 119.506L104.526 111.713Z" fill="#7347DF"/>
<path d="M105.352 118.562L111.02 124.82L90.1191 132.732L85.1595 124.702L105.352 118.562Z" fill="white"/>
<path d="M130.74 145.367L110.43 153.987L130.268 144.304L130.74 145.367Z" fill="#94989B"/>
<path d="M130.504 147.965L108.777 157.294L130.032 146.902L130.504 147.965Z" fill="#94989B"/>
<path d="M130.74 149.382L103.108 162.017L130.15 148.319L130.74 149.382Z" fill="#94989B"/>
<path d="M94.016 164.733C90.7096 157.294 99.3298 155.995 99.3298 155.995L77.1298 119.506C77.1298 119.506 72.0521 119.388 72.0521 124.82C72.0521 127.064 72.9968 128.835 72.9968 128.835L94.016 164.733Z" fill="#6443B5"/>
</g>
<path d="M194.436 178H176.912C170.299 178 165.505 176.733 162.529 174.198C159.608 171.608 158.148 167.42 158.148 161.633V119.146H169.638V161.633C169.638 163.948 170.161 165.546 171.208 166.428C172.255 167.309 174.156 167.75 176.912 167.75H194.436V178ZM238.146 156.922H210.621C210.621 161.22 211.282 164.361 212.604 166.345C213.982 168.329 216.71 169.321 220.788 169.321C223.433 169.321 225.389 168.494 226.657 166.841C227.924 165.133 228.558 163.507 228.558 161.964H238.229C238.229 167.86 236.631 172.186 233.435 174.942C230.294 177.697 226.106 179.075 220.87 179.075C215.69 179.075 211.668 178.331 208.802 176.843C202.906 173.812 199.958 165.766 199.958 152.706C199.958 144.936 201.638 139.26 205 135.678C208.361 132.041 213.486 130.223 220.374 130.223C232.333 130.223 238.312 136.863 238.312 150.144C238.312 151.576 238.257 153.836 238.146 156.922ZM210.869 149.565H228.558C228.558 145.928 227.869 143.283 226.491 141.63C225.114 139.977 222.992 139.15 220.127 139.15C217.316 139.15 215.057 140.004 213.348 141.712C211.695 143.366 210.869 145.983 210.869 149.565ZM280.456 164.94V166.18C280.125 170.313 278.362 173.426 275.166 175.52C272.024 177.614 268.084 178.661 263.345 178.661C256.347 178.661 251.442 177.394 248.632 174.859C246.042 172.544 244.747 169.128 244.747 164.609V163.617H254.501C254.501 166.152 255.162 167.888 256.484 168.825C257.807 169.762 260.094 170.23 263.345 170.23C267.754 170.23 269.958 168.632 269.958 165.436C269.958 162.791 269.186 161.027 267.643 160.146C266.927 159.705 266.018 159.374 264.916 159.154L256.567 157.748C249.293 156.591 245.656 152.045 245.656 144.11C245.656 139.701 247.254 136.284 250.45 133.86C253.702 131.38 257.807 130.14 262.767 130.14C274.063 130.14 279.712 135.017 279.712 144.771V145.845H270.371C270.261 143.255 269.572 141.492 268.305 140.555C267.037 139.618 265.246 139.15 262.932 139.15C260.673 139.15 258.964 139.618 257.807 140.555C256.65 141.437 256.071 142.429 256.071 143.531C256.071 146.672 257.339 148.463 259.873 148.904L269.875 150.722C276.929 152.045 280.456 156.784 280.456 164.94ZM321.866 164.94V166.18C321.536 170.313 319.772 173.426 316.576 175.52C313.435 177.614 309.495 178.661 304.756 178.661C297.757 178.661 292.853 177.394 290.042 174.859C287.452 172.544 286.157 169.128 286.157 164.609V163.617H295.911C295.911 166.152 296.572 167.888 297.895 168.825C299.218 169.762 301.504 170.23 304.756 170.23C309.164 170.23 311.368 168.632 311.368 165.436C311.368 162.791 310.597 161.027 309.054 160.146C308.338 159.705 307.428 159.374 306.326 159.154L297.978 157.748C290.704 156.591 287.067 152.045 287.067 144.11C287.067 139.701 288.665 136.284 291.861 133.86C295.112 131.38 299.218 130.14 304.177 130.14C315.474 130.14 321.122 135.017 321.122 144.771V145.845H311.782C311.672 143.255 310.983 141.492 309.715 140.555C308.448 139.618 306.657 139.15 304.342 139.15C302.083 139.15 300.375 139.618 299.218 140.555C298.06 141.437 297.482 142.429 297.482 143.531C297.482 146.672 298.749 148.463 301.284 148.904L311.286 150.722C318.339 152.045 321.866 156.784 321.866 164.94ZM356.416 156.674V152.376C356.416 148.298 355.81 145.184 354.597 143.035C353.44 140.886 350.988 139.811 347.241 139.811C341.179 139.811 338.148 143.889 338.148 152.045V156.343C338.148 165.105 341.179 169.486 347.241 169.486C351.153 169.486 353.716 168.026 354.928 165.105C355.92 162.791 356.416 159.98 356.416 156.674ZM367.162 154.194C367.162 164.389 365.233 171.222 361.376 174.694C358.124 177.669 353.413 179.157 347.241 179.157C339.361 179.157 334.043 176.843 331.287 172.214C328.697 167.971 327.402 161.964 327.402 154.194C327.402 146.92 328.697 141.216 331.287 137.084C334.153 132.455 339.361 130.14 346.91 130.14C354.515 130.14 359.777 132.179 362.698 136.257C365.674 140.28 367.162 146.259 367.162 154.194ZM412.374 178H401.628V147.829C401.628 145.129 401.077 143.283 399.975 142.291C398.873 141.299 397.33 140.803 395.346 140.803L385.675 144.854V178H374.929V130.801H382.947L385.427 136.422L398.652 130.305C402.345 130.305 405.541 131.683 408.241 134.438C410.996 137.139 412.374 141.106 412.374 146.341V178ZM455.542 164.94V166.18C455.212 170.313 453.448 173.426 450.252 175.52C447.111 177.614 443.171 178.661 438.432 178.661C431.433 178.661 426.529 177.394 423.718 174.859C421.128 172.544 419.833 169.128 419.833 164.609V163.617H429.587C429.587 166.152 430.248 167.888 431.571 168.825C432.894 169.762 435.18 170.23 438.432 170.23C442.84 170.23 445.044 168.632 445.044 165.436C445.044 162.791 444.273 161.027 442.73 160.146C442.014 159.705 441.104 159.374 440.002 159.154L431.654 157.748C424.38 156.591 420.743 152.045 420.743 144.11C420.743 139.701 422.341 136.284 425.537 133.86C428.788 131.38 432.894 130.14 437.853 130.14C449.15 130.14 454.798 135.017 454.798 144.771V145.845H445.458C445.348 143.255 444.659 141.492 443.391 140.555C442.124 139.618 440.333 139.15 438.018 139.15C435.759 139.15 434.051 139.618 432.894 140.555C431.736 141.437 431.158 142.429 431.158 143.531C431.158 146.672 432.425 148.463 434.96 148.904L444.962 150.722C452.015 152.045 455.542 156.784 455.542 164.94Z" fill="#4EF68C"/>
<defs>
<clipPath id="clip0">
<rect width="75.5745" height="75.5745" fill="white" transform="translate(58 111.713)"/>
</clipPath>
</defs>
</svg>
