<svg width="1584" height="396" viewBox="0 0 1584 396" fill="none" xmlns="http://www.w3.org/2000/svg">
<g clip-path="url(#clip0)">
<path d="M1584 0H0V396H1584V0Z" fill="#121214"/>
<circle cx="1582.5" cy="197.5" r="709.5" fill="#18181B"/>
<circle cx="1582.5" cy="197.5" r="509.072" fill="#1D1D25"/>
<circle cx="1582.5" cy="197.5" r="220.219" fill="#24242E"/>
<path d="M1110.27 182.886C1115.62 182.886 1119.96 178.547 1119.96 173.194C1119.96 167.842 1115.62 163.503 1110.27 163.503C1104.92 163.503 1100.58 167.842 1100.58 173.194C1100.58 178.547 1104.92 182.886 1110.27 182.886Z" fill="#636388"/>
<path d="M1110.27 195.414C1098.62 195.696 1087 194.126 1075.85 190.763C1070.69 189.129 1065.89 186.556 1061.67 183.172C1060.06 182.017 1058.72 180.527 1057.74 178.804C1056.76 177.082 1056.17 175.168 1056 173.194C1056 166.787 1063.04 160.507 1074.83 156.398C1086.29 152.757 1098.25 150.992 1110.27 151.172C1122.13 151.006 1133.94 152.739 1145.24 156.305C1150.21 157.887 1154.85 160.336 1158.96 163.538C1160.54 164.64 1161.86 166.076 1162.83 167.745C1163.79 169.414 1164.38 171.274 1164.54 173.194C1164.54 179.854 1156.67 186.603 1144 190.798C1133.06 194.051 1121.68 195.608 1110.27 195.414ZM1110.27 155.808C1098.77 155.655 1087.33 157.332 1076.36 160.778C1065.5 164.565 1060.64 169.744 1060.64 173.183C1060.64 176.78 1065.87 182.436 1077.35 186.363C1088.02 189.564 1099.13 191.054 1110.27 190.778C1121.19 190.973 1132.07 189.496 1142.54 186.398C1154.46 182.448 1159.89 176.784 1159.89 173.194C1159.69 171.963 1159.25 170.785 1158.57 169.735C1157.9 168.686 1157.01 167.787 1155.97 167.097C1152.3 164.256 1148.15 162.085 1143.72 160.685C1132.9 157.288 1121.61 155.642 1110.27 155.808Z" fill="#636388"/>
<path d="M1088.25 221.53C1086.44 221.572 1084.66 221.133 1083.07 220.259C1077.52 217.057 1075.6 207.823 1077.93 195.554C1080.5 183.812 1084.95 172.563 1091.11 162.243C1096.89 151.889 1104.29 142.527 1113.02 134.511C1116.87 131.001 1121.31 128.202 1126.14 126.242C1127.89 125.424 1129.79 125 1131.72 125C1133.65 125 1135.55 125.424 1137.3 126.242C1143.07 129.568 1144.98 139.756 1142.29 152.831C1139.64 163.935 1135.3 174.568 1129.43 184.359C1123.86 194.59 1116.69 203.871 1108.2 211.854C1104.21 215.501 1099.58 218.378 1094.55 220.34C1092.53 221.088 1090.4 221.491 1088.25 221.53ZM1095.13 164.546C1089.25 174.428 1084.98 185.183 1082.49 196.407C1080.34 207.707 1082.4 214.502 1085.4 216.231C1088.5 218.026 1096.02 216.324 1105.17 208.338C1113.27 200.69 1120.11 191.806 1125.43 182.017C1131.05 172.657 1135.21 162.492 1137.76 151.874C1140.29 139.566 1138.1 132.03 1134.99 130.239C1133.83 129.792 1132.58 129.593 1131.34 129.652C1130.09 129.711 1128.87 130.029 1127.75 130.584C1123.46 132.357 1119.51 134.874 1116.09 138.019C1107.74 145.697 1100.67 154.66 1095.15 164.569L1095.13 164.546Z" fill="#636388"/>
<path d="M1132.28 221.581C1127.03 221.581 1120.35 218.402 1113.41 212.428C1104.52 204.339 1096.99 194.865 1091.13 184.374C1085.05 174.196 1080.63 163.11 1078.05 151.536C1076.93 146.445 1076.72 141.195 1077.44 136.03C1077.6 134.115 1078.19 132.259 1079.15 130.593C1080.11 128.927 1081.42 127.492 1083 126.39C1088.76 123.052 1098.54 126.483 1108.52 135.344C1116.82 143.183 1123.87 152.249 1129.42 162.224C1135.5 172.165 1139.96 183.008 1142.64 194.348C1143.8 199.627 1143.98 205.076 1143.17 210.42C1142.97 212.391 1142.35 214.297 1141.36 216.006C1140.36 217.716 1139 219.189 1137.38 220.325C1135.82 221.188 1134.06 221.622 1132.28 221.581ZM1095.14 182.041C1100.77 192.067 1107.95 201.134 1116.43 208.901C1125.15 216.402 1132.06 218.014 1135.04 216.266C1138.14 214.463 1140.43 207.106 1138.07 195.201C1135.49 184.374 1131.21 174.024 1125.39 164.534C1120.09 154.987 1113.37 146.306 1105.45 138.794C1096.05 130.452 1088.43 128.588 1085.32 130.386C1084.35 131.173 1083.56 132.151 1082.99 133.26C1082.42 134.369 1082.08 135.584 1082.01 136.829C1081.39 141.435 1081.59 146.113 1082.6 150.649C1085.08 161.717 1089.32 172.317 1095.15 182.048L1095.14 182.041Z" fill="#636388"/>
<path d="M1060.45 255.005H1056.72V263.333H1052.03V240.583H1060.48C1063.17 240.583 1065.24 241.182 1066.7 242.38C1068.16 243.578 1068.89 245.271 1068.89 247.458C1068.89 249.01 1068.55 250.307 1067.88 251.349C1067.21 252.38 1066.19 253.203 1064.83 253.818L1069.75 263.115V263.333H1064.72L1060.45 255.005ZM1056.72 251.208H1060.5C1061.68 251.208 1062.59 250.911 1063.23 250.318C1063.88 249.713 1064.2 248.885 1064.2 247.833C1064.2 246.76 1063.9 245.917 1063.28 245.302C1062.68 244.687 1061.74 244.38 1060.48 244.38H1056.72V251.208ZM1079.95 263.646C1077.47 263.646 1075.45 262.885 1073.89 261.365C1072.34 259.844 1071.56 257.818 1071.56 255.286V254.849C1071.56 253.151 1071.89 251.635 1072.55 250.302C1073.2 248.958 1074.13 247.927 1075.33 247.208C1076.54 246.479 1077.91 246.115 1079.45 246.115C1081.77 246.115 1083.58 246.844 1084.91 248.302C1086.24 249.76 1086.91 251.828 1086.91 254.505V256.349H1076.14C1076.29 257.453 1076.72 258.338 1077.45 259.005C1078.19 259.672 1079.12 260.005 1080.25 260.005C1081.99 260.005 1083.35 259.375 1084.33 258.115L1086.55 260.599C1085.87 261.557 1084.95 262.307 1083.8 262.849C1082.64 263.38 1081.36 263.646 1079.95 263.646ZM1079.44 249.771C1078.54 249.771 1077.81 250.073 1077.25 250.677C1076.7 251.281 1076.34 252.146 1076.19 253.271H1082.47V252.911C1082.45 251.911 1082.18 251.141 1081.66 250.599C1081.14 250.047 1080.4 249.771 1079.44 249.771ZM1099.28 263.333C1099.07 262.927 1098.92 262.422 1098.83 261.818C1097.73 263.036 1096.31 263.646 1094.56 263.646C1092.91 263.646 1091.53 263.167 1090.44 262.208C1089.35 261.25 1088.81 260.042 1088.81 258.583C1088.81 256.792 1089.47 255.417 1090.8 254.458C1092.13 253.5 1094.05 253.016 1096.56 253.005H1098.64V252.036C1098.64 251.255 1098.44 250.63 1098.03 250.161C1097.64 249.693 1097.01 249.458 1096.14 249.458C1095.38 249.458 1094.78 249.641 1094.34 250.005C1093.92 250.37 1093.7 250.87 1093.7 251.505H1089.19C1089.19 250.526 1089.49 249.62 1090.09 248.786C1090.7 247.953 1091.55 247.302 1092.66 246.833C1093.76 246.354 1095 246.115 1096.38 246.115C1098.46 246.115 1100.11 246.641 1101.33 247.693C1102.56 248.734 1103.17 250.203 1103.17 252.099V259.427C1103.18 261.031 1103.41 262.245 1103.84 263.068V263.333H1099.28ZM1095.55 260.193C1096.21 260.193 1096.83 260.047 1097.39 259.755C1097.95 259.453 1098.37 259.052 1098.64 258.552V255.646H1096.95C1094.69 255.646 1093.49 256.427 1093.34 257.99L1093.33 258.255C1093.33 258.818 1093.53 259.281 1093.92 259.646C1094.32 260.01 1094.86 260.193 1095.55 260.193ZM1113.67 260.005C1114.51 260.005 1115.18 259.776 1115.7 259.318C1116.22 258.859 1116.49 258.25 1116.52 257.49H1120.75C1120.74 258.635 1120.43 259.687 1119.81 260.646C1119.2 261.594 1118.35 262.333 1117.28 262.865C1116.22 263.385 1115.04 263.646 1113.75 263.646C1111.33 263.646 1109.43 262.88 1108.03 261.349C1106.64 259.807 1105.94 257.682 1105.94 254.974V254.677C1105.94 252.073 1106.63 249.995 1108.02 248.443C1109.4 246.891 1111.3 246.115 1113.72 246.115C1115.83 246.115 1117.53 246.719 1118.8 247.927C1120.08 249.125 1120.73 250.724 1120.75 252.724H1116.52C1116.49 251.849 1116.22 251.141 1115.7 250.599C1115.18 250.047 1114.49 249.771 1113.64 249.771C1112.59 249.771 1111.79 250.156 1111.25 250.927C1110.72 251.687 1110.45 252.927 1110.45 254.646V255.115C1110.45 256.854 1110.72 258.104 1111.25 258.865C1111.78 259.625 1112.59 260.005 1113.67 260.005ZM1128.73 242.271V246.427H1131.62V249.74H1128.73V258.177C1128.73 258.802 1128.85 259.25 1129.09 259.521C1129.33 259.792 1129.79 259.927 1130.47 259.927C1130.97 259.927 1131.41 259.891 1131.8 259.818V263.24C1130.91 263.51 1130 263.646 1129.06 263.646C1125.9 263.646 1124.28 262.047 1124.22 258.849V249.74H1121.75V246.427H1124.22V242.271H1128.73ZM1143.61 240.583H1148.3V256.333C1148.3 257.781 1147.97 259.062 1147.33 260.177C1146.69 261.281 1145.79 262.135 1144.62 262.74C1143.46 263.344 1142.14 263.646 1140.67 263.646C1138.27 263.646 1136.39 263.036 1135.05 261.818C1133.7 260.588 1133.03 258.854 1133.03 256.615H1137.75C1137.75 257.729 1137.98 258.552 1138.45 259.083C1138.92 259.615 1139.66 259.88 1140.67 259.88C1141.57 259.88 1142.28 259.573 1142.81 258.958C1143.34 258.344 1143.61 257.469 1143.61 256.333V240.583ZM1164.11 257.365C1164.11 256.479 1163.8 255.802 1163.17 255.333C1162.55 254.854 1161.42 254.354 1159.8 253.833C1158.17 253.302 1156.89 252.781 1155.94 252.271C1153.35 250.875 1152.06 248.995 1152.06 246.63C1152.06 245.401 1152.41 244.307 1153.09 243.349C1153.79 242.38 1154.79 241.625 1156.08 241.083C1157.38 240.542 1158.84 240.271 1160.45 240.271C1162.08 240.271 1163.53 240.568 1164.8 241.161C1166.07 241.745 1167.05 242.573 1167.75 243.646C1168.46 244.719 1168.81 245.937 1168.81 247.302H1164.12C1164.12 246.26 1163.8 245.453 1163.14 244.88C1162.48 244.297 1161.56 244.005 1160.38 244.005C1159.23 244.005 1158.34 244.25 1157.7 244.74C1157.07 245.219 1156.75 245.854 1156.75 246.646C1156.75 247.385 1157.12 248.005 1157.86 248.505C1158.61 249.005 1159.71 249.474 1161.16 249.911C1163.82 250.713 1165.77 251.708 1166.98 252.896C1168.2 254.083 1168.81 255.562 1168.81 257.333C1168.81 259.302 1168.07 260.849 1166.58 261.974C1165.09 263.088 1163.08 263.646 1160.56 263.646C1158.81 263.646 1157.22 263.328 1155.78 262.693C1154.34 262.047 1153.24 261.167 1152.48 260.052C1151.73 258.937 1151.36 257.646 1151.36 256.177H1156.06C1156.06 258.687 1157.56 259.943 1160.56 259.943C1161.68 259.943 1162.55 259.719 1163.17 259.271C1163.8 258.812 1164.11 258.177 1164.11 257.365Z" fill="#636388"/>
<path d="M1330.55 141.282C1338.45 141.282 1345.84 144.354 1351.42 149.934L1386.07 184.605C1391.65 190.184 1394.72 197.583 1394.72 205.482C1394.72 213.382 1391.65 220.78 1386.07 226.36L1351.42 261.032C1345.84 266.611 1338.45 269.683 1330.55 269.683C1322.66 269.683 1315.26 266.611 1309.69 261.032L1275.04 226.36C1269.46 220.78 1266.39 213.382 1266.39 205.482C1266.39 197.583 1269.46 190.184 1275.04 184.605L1309.69 149.934C1315.26 144.354 1322.66 141.282 1330.55 141.282ZM1330.55 135.953C1321.65 135.953 1312.7 139.338 1305.93 146.172L1271.28 180.843C1257.68 194.448 1257.68 216.517 1271.28 230.184L1305.93 264.855C1312.76 271.689 1321.65 275.075 1330.55 275.075C1339.45 275.075 1348.41 271.689 1355.18 264.855L1389.83 230.184C1403.42 216.58 1403.42 194.511 1389.83 180.843L1355.18 146.172C1348.41 139.338 1339.52 135.953 1330.55 135.953Z" fill="#0B733B"/>
<path d="M1389.89 230.184L1355.18 264.855C1341.58 278.46 1319.53 278.46 1305.87 264.855L1271.22 230.184C1260.81 219.777 1258.37 204.479 1263.82 191.752C1265.51 191.313 1267.27 191.125 1269.08 191.125C1281.05 191.125 1290.7 200.842 1290.7 212.754C1290.7 216.078 1289.95 219.15 1288.63 221.971C1290.33 221.407 1292.08 221.094 1293.96 221.094C1301.73 221.094 1308.25 226.422 1310 233.632C1310.56 233.507 1311.13 233.507 1311.76 233.507C1317.77 233.507 1322.66 238.272 1322.91 244.228C1325.23 243.038 1327.8 242.347 1330.55 242.347C1333.31 242.347 1335.94 243.038 1338.19 244.228C1338.45 238.272 1343.34 233.507 1349.35 233.507C1349.91 233.507 1350.54 233.57 1351.1 233.632C1352.86 226.422 1359.37 221.094 1367.15 221.094C1369.02 221.094 1370.78 221.407 1372.47 221.971C1371.16 219.15 1370.4 216.078 1370.4 212.754C1370.4 200.78 1380.05 191.125 1392.02 191.125C1393.84 191.125 1395.59 191.376 1397.29 191.752C1402.74 204.416 1400.29 219.777 1389.89 230.184Z" fill="url(#paint0_radial)"/>
<path d="M1338.32 208.743H1330.55H1322.85L1316.33 267.05H1330.55H1344.78L1338.32 208.743Z" fill="url(#paint1_linear)"/>
<path d="M1334.25 208.743H1330.55H1326.92L1323.85 267.05H1330.55H1337.32L1334.25 208.743Z" fill="url(#paint2_linear)"/>
<path d="M1330.55 111C1326.42 111 1316.33 132.003 1316.33 141.094C1316.33 157.27 1316.33 205.483 1316.33 205.483H1330.55H1344.78C1344.78 205.483 1344.78 157.27 1344.78 141.094C1344.78 132.066 1334.75 111 1330.55 111Z" fill="white"/>
<path d="M1339.33 132.568C1338.76 132.129 1336.26 130.248 1330.55 130.248C1324.79 130.248 1322.28 132.129 1321.78 132.568C1321.72 132.631 1321.65 132.693 1321.65 132.819V134.386C1321.65 134.637 1321.97 134.825 1322.16 134.637C1323.16 133.947 1325.73 132.631 1330.55 132.631C1335.38 132.631 1337.95 133.947 1338.95 134.637C1339.2 134.762 1339.45 134.637 1339.45 134.386V132.819C1339.45 132.756 1339.45 132.631 1339.33 132.568Z" fill="#04D361"/>
<path d="M1316.33 178.899C1316.33 178.899 1299.23 192.568 1298.16 212.128C1298.09 213.194 1299.16 214.072 1300.16 213.696C1305.17 212.128 1308.62 205.483 1316.33 205.483V178.899Z" fill="#04D361"/>
<path d="M1344.78 178.899C1344.78 178.899 1361.89 192.568 1362.95 212.128C1363.01 213.194 1361.94 214.072 1360.94 213.696C1355.93 212.128 1352.48 205.483 1344.78 205.483V178.899Z" fill="#04D361"/>
<path d="M1330.55 205.483H1316.33L1319.4 212.066C1319.4 212.066 1327.86 212.944 1330.55 212.944C1333.25 212.944 1341.71 212.066 1341.71 212.066L1344.78 205.483H1330.55Z" fill="#04D361"/>
<path d="M1330.55 178.899C1328.99 178.899 1327.11 195.2 1327.11 212.755C1327.11 215.514 1328.86 218.272 1330.55 218.272C1332.31 218.272 1334 215.514 1334 212.755C1334.07 195.2 1332.12 178.899 1330.55 178.899Z" fill="#04D361"/>
<path d="M1323.91 283.226L1314.58 273.884C1310.88 270.184 1310.88 264.292 1314.58 260.592L1323.91 251.25C1327.61 247.552 1333.5 247.552 1337.19 251.25L1346.53 260.592C1350.23 264.292 1350.23 270.184 1346.53 273.884L1337.19 283.226C1333.56 286.862 1327.61 286.862 1323.91 283.226Z" fill="#06B656"/>
<path d="M1337.38 258.711L1335.13 258.397C1335.07 258.397 1335 258.397 1334.94 258.46L1334 259.714C1333.94 259.777 1333.94 259.901 1333.94 259.964C1333.94 260.027 1333.88 260.152 1333.81 260.09L1333 259.901C1332.87 259.901 1332.74 259.901 1332.68 260.027L1329.55 264.04C1329.49 264.103 1329.36 264.165 1329.3 264.103L1328.11 263.538C1327.99 263.475 1327.86 263.475 1327.8 263.538L1327.17 263.977C1327.05 264.04 1326.92 264.04 1326.86 263.977L1326.54 263.852C1326.35 263.726 1326.1 263.852 1326.1 264.04L1325.91 264.98C1325.85 265.231 1325.98 265.419 1326.17 265.544L1326.61 265.796L1328.05 266.673L1328.73 267.112C1328.92 267.237 1329.17 267.237 1329.36 267.049L1330.55 265.984C1330.68 265.921 1330.81 265.858 1330.93 265.921L1331.3 266.109C1331.43 266.172 1331.55 266.172 1331.68 266.046L1332.31 265.482C1332.44 265.419 1332.56 265.357 1332.68 265.419L1333.56 265.858C1333.69 265.921 1333.88 265.858 1333.94 265.733L1334.37 265.231L1337.51 261.219C1337.63 261.031 1337.57 260.78 1337.32 260.717L1336.63 260.592C1336.51 260.529 1336.44 260.403 1336.51 260.278L1337.57 258.961C1337.63 258.899 1337.51 258.711 1337.38 258.711Z" fill="white"/>
<path d="M1327.05 266.799C1326.98 266.736 1326.92 266.799 1326.92 266.862L1327.23 267.74C1327.23 267.802 1327.23 267.865 1327.23 267.928L1326.92 269.056C1326.92 269.119 1326.92 269.182 1326.98 269.244L1327.8 269.872C1327.86 269.934 1327.99 269.934 1328.05 269.872L1328.92 269.119C1328.99 269.056 1329.05 269.056 1329.11 269.056L1330.11 268.931C1330.18 268.931 1330.18 268.805 1330.18 268.805L1327.05 266.799Z" fill="white"/>
<path d="M1326.73 269.746C1326.67 269.683 1326.61 269.683 1326.54 269.746L1325.85 270.059C1325.79 270.059 1325.79 270.121 1325.79 270.184L1324.29 273.883C1324.29 273.883 1324.29 273.883 1324.35 273.883L1324.66 273.758C1324.66 273.758 1324.66 273.758 1324.72 273.758V273.821L1323.66 275.576C1323.66 275.639 1323.66 275.639 1323.72 275.639L1327.61 271.689C1327.67 271.626 1327.67 271.626 1327.67 271.563L1327.73 270.56C1327.73 270.497 1327.73 270.435 1327.67 270.373L1326.73 269.746Z" fill="white"/>
<path d="M734 153.464H744.622V204.937H734V153.464Z" fill="#2D2D38"/>
<path d="M774.971 198.864C770.722 198.864 766.928 198.255 763.589 196.888C760.403 195.521 757.823 193.701 756.002 191.119C754.181 188.538 753.271 185.502 753.271 181.858C753.271 178.366 754.181 175.176 755.851 172.595C757.671 170.013 760.099 168.04 763.438 166.521C766.624 165.157 770.57 164.396 774.971 164.396C776.185 164.396 777.398 164.548 778.461 164.701C779.674 164.852 780.737 165.004 781.799 165.307L801.829 165.459V173.203C799.097 173.203 796.366 172.899 793.635 172.141C790.903 171.38 788.324 170.622 786.351 169.863L786.048 169.255C787.868 170.166 789.538 171.078 791.207 172.443C792.725 173.657 794.09 175.176 795.001 176.695C795.911 178.366 796.518 180.187 796.518 182.312C796.518 185.804 795.607 188.69 793.939 191.119C792.117 193.548 789.69 195.521 786.503 196.737C783.164 198.255 779.371 198.864 774.971 198.864ZM788.324 221.182V219.209C788.324 216.779 787.565 215.109 786.048 214.046C784.53 213.136 782.406 212.679 779.674 212.679H767.383C764.956 212.679 762.982 212.527 761.313 212.073C759.644 211.769 758.43 211.161 757.519 210.554C756.609 209.795 755.851 209.035 755.395 208.125C754.94 207.214 754.788 206.152 754.788 205.087C754.788 202.962 755.547 201.293 756.913 200.229C758.279 199.166 760.099 198.407 762.527 198.103C764.803 197.799 767.383 197.649 770.266 197.799L775.274 198.712C771.935 198.864 769.508 199.166 767.838 199.622C766.169 200.078 765.41 200.989 765.41 202.355C765.41 203.114 765.714 203.723 766.321 204.177C766.928 204.633 767.838 204.785 769.052 204.785H781.951C785.441 204.785 788.476 205.239 791.055 205.999C793.635 206.758 795.456 208.125 796.821 209.946C798.187 211.769 798.794 214.35 798.794 217.538V221.334H788.324V221.182ZM774.971 191.423C777.247 191.423 779.219 191.119 781.04 190.361C782.709 189.6 784.075 188.538 784.986 187.171C785.896 185.804 786.351 184.135 786.351 182.16C786.351 180.187 785.896 178.366 784.986 176.999C784.075 175.633 782.709 174.418 781.04 173.657C779.371 172.899 777.398 172.443 774.971 172.443C772.694 172.443 770.721 172.899 768.9 173.657C767.08 174.418 765.866 175.481 764.803 176.999C763.893 178.366 763.438 180.187 763.438 182.16C763.438 184.135 763.893 185.804 764.803 187.171C765.714 188.538 767.08 189.6 768.749 190.361C770.722 190.967 772.694 191.423 774.971 191.423Z" fill="#2D2D38"/>
<path d="M807.141 165.307H817.459V204.936H807.141V165.307ZM835.821 164.549C838.248 164.549 840.524 164.853 842.649 165.46C844.774 166.068 846.593 167.13 848.112 168.345C849.63 169.712 850.845 171.381 851.756 173.356C852.666 175.329 852.97 177.758 852.97 180.644V204.936H842.649V182.617C842.649 179.277 841.89 176.848 840.222 175.329C838.552 173.81 835.972 173.052 832.331 173.052C829.599 173.052 827.019 173.658 824.895 174.571C822.619 175.633 820.798 177 819.432 178.517C818.066 180.188 817.308 181.857 817.004 183.527L816.853 179.43C817.156 177.606 817.763 175.785 818.673 173.963C819.584 172.141 820.95 170.622 822.467 169.104C824.136 167.585 825.957 166.522 828.233 165.612C830.509 164.701 832.937 164.549 835.821 164.549Z" fill="#2D2D38"/>
<path d="M872.391 148V157.109H860.403V148H872.391ZM861.314 165.31H871.632V204.938H861.314V165.31Z" fill="#2D2D38"/>
<path d="M877.552 165.307H908.201V173.353H877.552V165.307ZM887.718 154.527H898.035V204.935H887.718V154.527Z" fill="#2D2D38"/>
<path d="M948.718 191.727H958.732C958.277 194.46 957.214 196.889 955.399 199.015C953.577 201.142 951.148 202.81 947.959 204.025C944.771 205.24 940.982 205.848 936.579 205.848C931.569 205.848 927.021 205.088 923.225 203.419C919.278 201.748 916.4 199.471 914.122 196.433C911.997 193.397 910.934 189.601 910.934 185.351C910.934 180.946 911.997 177.302 914.122 174.114C916.248 171.077 919.126 168.647 922.921 166.979C926.717 165.307 931.12 164.549 936.275 164.549C941.437 164.549 945.834 165.307 949.174 166.979C952.666 168.647 955.247 171.077 956.91 174.419C958.58 177.758 959.339 182.009 959.036 187.172H921.403C921.707 189.145 922.466 190.968 923.681 192.639C924.895 194.308 926.565 195.522 928.843 196.585C930.968 197.498 933.543 197.952 936.579 197.952C939.919 197.952 942.645 197.345 944.771 196.283C946.745 195.068 948.111 193.549 948.718 191.727ZM935.668 172.291C931.879 172.291 928.691 173.204 926.413 174.873C923.984 176.544 922.466 178.669 921.859 181.098H948.718C948.415 178.517 947.2 176.392 944.923 174.721C942.645 173.204 939.616 172.291 935.668 172.291Z" fill="#2D2D38"/>
<path d="M757.656 232.849C756.701 232.849 755.914 233.609 755.914 234.567V238.2V241.834H757.656V238.2V234.567H759.735H761.813V232.849H759.735H757.656Z" fill="#2D2D38"/>
<path d="M772.203 237.325V234.551C772.203 233.61 771.432 232.833 770.46 232.833H767.645H764.829C763.874 232.833 763.086 233.593 763.086 234.551V237.325V240.1C763.086 241.041 763.857 241.818 764.829 241.818H767.645H770.46C771.416 241.818 772.203 241.058 772.203 240.1V237.325ZM770.46 237.325V240.1H767.645H764.829V237.325V234.551H767.645H770.46V237.325Z" fill="#2D2D38"/>
<path d="M775.69 232.849C774.734 232.849 773.946 233.609 773.946 234.567V237.342V240.116C773.946 241.057 774.717 241.834 775.69 241.834L781.823 241.751V240.116H775.69V237.342V234.567H781.823V232.932L775.69 232.849Z" fill="#2D2D38"/>
<path d="M791.813 232.849H789.45L785.998 236.466H785.311V232.849H783.568V237.325V241.818H785.311V238.184H786.183H786.316L789.902 241.818H792.299L787.69 237.127L791.813 232.849Z" fill="#2D2D38"/>
<path d="M794.409 240.1V238.184L801.783 238.102V236.466V234.551C801.783 233.61 801.012 232.833 800.04 232.833H797.225H794.409C793.454 232.833 792.667 233.593 792.667 234.551V237.325V240.1C792.667 241.041 793.437 241.818 794.409 241.818L801.783 241.735V240.1H794.409ZM794.409 234.551H797.225H800.04V236.466H798.096H794.409V234.551Z" fill="#2D2D38"/>
<path d="M806.157 230.224H805.487L804.414 231.528V232.833H803.09V234.551L804.414 234.534V240.1C804.414 241.041 805.185 241.818 806.157 241.818L808.973 241.735V240.1H806.157V234.518L809.225 234.468V232.833H806.157V230.224Z" fill="#2D2D38"/>
<path d="M818.409 238.184C818.409 237.243 817.638 236.466 816.665 236.466H814.47H812.274V234.551H818.409V232.916L812.274 232.833C811.319 232.833 810.532 233.593 810.532 234.551V236.466C810.532 237.408 811.303 238.184 812.274 238.184H814.47H816.665V240.1H810.532V241.735L816.665 241.818C817.621 241.818 818.409 241.058 818.409 240.1V238.184Z" fill="#2D2D38"/>
<path d="M827.509 232.849H824.693H821.877C820.922 232.849 820.134 233.609 820.134 234.567V237.342V240.116C820.134 241.057 820.905 241.834 821.877 241.834L829.252 241.751V240.116H821.877V238.2L829.252 238.118V236.483V234.567C829.252 233.609 828.481 232.849 827.509 232.849ZM827.509 236.466H821.877V234.551H824.693H827.509V236.466Z" fill="#2D2D38"/>
<path d="M838.368 232.849L830.994 232.932V234.567H838.368V236.483L830.994 236.565V238.2V240.116C830.994 241.057 831.765 241.834 832.737 241.834H835.552H838.368C839.323 241.834 840.111 241.074 840.111 240.116V237.342V234.567C840.094 233.609 839.323 232.849 838.368 232.849ZM838.368 240.1H835.552H832.737V238.184H838.368V240.1Z" fill="#2D2D38"/>
<path d="M844.471 234.518L847.538 234.468V232.833H844.471V230.207H843.8L842.728 231.512V232.817H841.403V234.534L842.728 234.518V240.084C842.728 241.025 843.499 241.801 844.471 241.801L847.287 241.719V240.084H844.471V234.518Z" fill="#2D2D38"/>
<path d="M751.305 226.969L748.473 226.557C748.389 226.54 748.305 226.573 748.272 226.606L747.065 228.159C746.981 228.258 746.965 228.39 746.998 228.506C747.032 228.621 746.931 228.72 746.813 228.704L745.825 228.489C745.674 228.456 745.506 228.506 745.406 228.638L741.484 233.592C741.417 233.691 741.283 233.724 741.166 233.675L739.674 233.015C739.54 232.948 739.389 232.964 739.272 233.047L738.518 233.559C738.4 233.642 738.233 233.658 738.099 233.592L737.73 233.411C737.495 233.295 737.21 233.427 737.144 233.675L736.876 234.848C736.808 235.128 736.926 235.409 737.177 235.557L737.747 235.905L739.574 237.012L740.462 237.556C740.713 237.705 741.032 237.672 741.25 237.49L742.741 236.202C742.859 236.103 743.043 236.07 743.177 236.152L743.63 236.384C743.78 236.466 743.964 236.433 744.082 236.318L744.836 235.624C744.953 235.508 745.138 235.492 745.272 235.557L746.394 236.07C746.562 236.152 746.763 236.103 746.881 235.954L747.4 235.293L751.339 230.322C751.523 230.091 751.406 229.745 751.104 229.679L750.233 229.48C750.048 229.447 749.964 229.216 750.099 229.084L751.456 227.416C751.59 227.218 751.507 227.002 751.305 226.969Z" fill="#2D2D38"/>
<path d="M738.316 236.978C738.232 236.929 738.148 237.011 738.182 237.094L738.601 238.184C738.635 238.266 738.635 238.349 738.618 238.432L738.249 239.852C738.232 239.951 738.266 240.05 738.332 240.1L739.389 240.909C739.489 240.975 739.624 240.975 739.707 240.892L740.813 239.935C740.88 239.885 740.964 239.852 741.031 239.835L742.288 239.703C742.372 239.686 742.405 239.572 742.321 239.521L738.316 236.978Z" fill="#2D2D38"/>
<path d="M737.948 240.645C737.881 240.595 737.78 240.579 737.697 240.612L736.808 241.042C736.758 241.058 736.724 241.108 736.691 241.157L734.797 245.765C734.797 245.782 734.797 245.782 734.797 245.798C734.813 245.815 734.83 245.831 734.864 245.831L735.3 245.666C735.316 245.666 735.333 245.666 735.35 245.666C735.367 245.683 735.384 245.716 735.367 245.732L734.009 247.929C733.976 247.979 734.043 248.028 734.076 247.979L738.987 243.123C739.037 243.073 739.054 243.024 739.07 242.957L739.171 241.702C739.171 241.62 739.138 241.554 739.087 241.504L737.948 240.645Z" fill="#2D2D38"/>
</g>
<defs>
<radialGradient id="paint0_radial" cx="0" cy="0" r="1" gradientUnits="userSpaceOnUse" gradientTransform="translate(1330.38 204.979) scale(89.693 89.7459)">
<stop stop-color="#68E5A0"/>
<stop offset="0.00567427" stop-color="#04D361"/>
<stop offset="0.584253" stop-color="#04D361" stop-opacity="0"/>
</radialGradient>
<linearGradient id="paint1_linear" x1="1330.57" y1="208.754" x2="1330.57" y2="285.181" gradientUnits="userSpaceOnUse">
<stop stop-color="#06B656"/>
<stop offset="0.380208" stop-color="#08994A" stop-opacity="0"/>
</linearGradient>
<linearGradient id="paint2_linear" x1="1330.57" y1="208.754" x2="1330.57" y2="285.181" gradientUnits="userSpaceOnUse">
<stop stop-color="#06B656"/>
<stop offset="0.4633" stop-color="#08994A" stop-opacity="0"/>
</linearGradient>
<clipPath id="clip0">
<rect width="1584" height="396" fill="white"/>
</clipPath>
</defs>
</svg>
