<svg width="1584" height="396" viewBox="0 0 1584 396" fill="none" xmlns="http://www.w3.org/2000/svg">
<rect width="1584" height="396" fill="#121214"/>
<path d="M1371.5 107.11C1384.04 107.11 1395.79 111.991 1404.65 120.856L1459.7 175.938C1468.56 184.803 1473.44 196.557 1473.44 209.107C1473.44 221.658 1468.56 233.411 1459.7 242.276L1404.65 297.36C1395.79 306.224 1384.04 311.105 1371.5 311.105C1358.96 311.105 1347.21 306.224 1338.35 297.36L1283.3 242.276C1274.44 233.411 1269.56 221.658 1269.56 209.107C1269.56 196.557 1274.44 184.803 1283.3 175.938L1338.35 120.856C1347.21 111.991 1358.96 107.11 1371.5 107.11ZM1371.5 98.6436C1357.36 98.6436 1343.13 104.022 1332.38 114.879L1277.33 169.962C1255.73 191.576 1255.73 226.638 1277.33 248.352L1332.38 303.435C1343.23 314.292 1357.36 319.671 1371.5 319.671C1385.64 319.671 1399.87 314.292 1410.62 303.435L1465.67 248.352C1487.27 226.738 1487.27 191.676 1465.67 169.962L1410.62 114.879C1399.87 104.022 1385.74 98.6436 1371.5 98.6436Z" fill="#0B733B"/>
<path d="M1465.77 248.351L1410.62 303.434C1389.02 325.048 1353.98 325.048 1332.28 303.434L1277.23 248.351C1260.7 231.817 1256.82 207.513 1265.48 187.293C1268.17 186.595 1270.96 186.297 1273.84 186.297C1292.86 186.297 1308.19 201.735 1308.19 220.66C1308.19 225.94 1306.99 230.821 1304.9 235.303C1307.59 234.407 1310.38 233.909 1313.36 233.909C1325.71 233.909 1336.06 242.375 1338.85 253.829C1339.74 253.631 1340.64 253.631 1341.64 253.631C1351.19 253.631 1358.96 261.201 1359.36 270.663C1363.04 268.772 1367.12 267.675 1371.5 267.675C1375.88 267.675 1380.06 268.772 1383.64 270.663C1384.04 261.201 1391.81 253.631 1401.36 253.631C1402.26 253.631 1403.26 253.731 1404.15 253.829C1406.94 242.375 1417.29 233.909 1429.64 233.909C1432.62 233.909 1435.41 234.407 1438.1 235.303C1436.01 230.821 1434.81 225.94 1434.81 220.66C1434.81 201.636 1450.14 186.297 1469.16 186.297C1472.04 186.297 1474.83 186.695 1477.52 187.293C1486.18 207.413 1482.3 231.817 1465.77 248.351Z" fill="url(#paint0_radial)"/>
<path d="M1383.84 214.287H1371.5H1359.26L1348.9 306.921H1371.5H1394.1L1383.84 214.287Z" fill="url(#paint1_linear)"/>
<path d="M1377.37 214.287H1371.5H1365.73L1360.85 306.921H1371.5H1382.25L1377.37 214.287Z" fill="url(#paint2_linear)"/>
<path d="M1371.5 59C1364.93 59 1348.9 92.3683 1348.9 106.811C1348.9 132.51 1348.9 209.108 1348.9 209.108H1371.5H1394.1C1394.1 209.108 1394.1 132.51 1394.1 106.811C1394.1 92.4679 1378.17 59 1371.5 59Z" fill="white"/>
<path d="M1385.44 93.2655C1384.54 92.5682 1380.56 89.5801 1371.5 89.5801C1362.34 89.5801 1358.36 92.5682 1357.56 93.2655C1357.46 93.3651 1357.36 93.4648 1357.36 93.6639V96.1541C1357.36 96.5526 1357.86 96.8514 1358.16 96.5526C1359.75 95.4569 1363.84 93.3651 1371.5 93.3651C1379.17 93.3651 1383.25 95.4569 1384.84 96.5526C1385.24 96.7517 1385.64 96.5526 1385.64 96.1541V93.6639C1385.64 93.5643 1385.64 93.3651 1385.44 93.2655Z" fill="#04D361"/>
<path d="M1348.9 166.874C1348.9 166.874 1321.73 188.589 1320.03 219.665C1319.93 221.359 1321.63 222.753 1323.22 222.156C1331.18 219.665 1336.66 209.108 1348.9 209.108V166.874Z" fill="#04D361"/>
<path d="M1394.1 166.874C1394.1 166.874 1421.28 188.589 1422.97 219.665C1423.07 221.359 1421.37 222.753 1419.78 222.156C1411.82 219.665 1406.34 209.108 1394.1 209.108V166.874Z" fill="#04D361"/>
<path d="M1371.5 209.108H1348.9L1353.78 219.566C1353.78 219.566 1367.22 220.962 1371.5 220.962C1375.78 220.962 1389.22 219.566 1389.22 219.566L1394.1 209.108H1371.5Z" fill="#04D361"/>
<path d="M1371.5 166.874C1369.01 166.874 1366.03 192.771 1366.03 220.662C1366.03 225.045 1368.81 229.427 1371.5 229.427C1374.29 229.427 1376.98 225.045 1376.98 220.662C1377.08 192.771 1373.99 166.874 1371.5 166.874Z" fill="#04D361"/>
<path d="M1360.95 332.62L1346.12 317.779C1340.24 311.901 1340.24 302.539 1346.12 296.661L1360.95 281.82C1366.82 275.944 1376.18 275.944 1382.05 281.82L1396.89 296.661C1402.76 302.539 1402.76 311.901 1396.89 317.779L1382.05 332.62C1376.28 338.397 1366.82 338.397 1360.95 332.62Z" fill="#06B656"/>
<path d="M1382.35 293.673L1378.77 293.174C1378.67 293.174 1378.57 293.174 1378.47 293.274L1376.98 295.266C1376.88 295.366 1376.88 295.564 1376.88 295.664C1376.88 295.764 1376.78 295.963 1376.68 295.864L1375.38 295.564C1375.18 295.564 1374.98 295.564 1374.88 295.764L1369.91 302.139C1369.81 302.239 1369.61 302.338 1369.51 302.239L1367.62 301.342C1367.42 301.242 1367.22 301.242 1367.12 301.342L1366.12 302.039C1365.93 302.139 1365.73 302.139 1365.63 302.039L1365.13 301.841C1364.83 301.641 1364.43 301.841 1364.43 302.139L1364.13 303.633C1364.03 304.032 1364.23 304.33 1364.53 304.529L1365.23 304.929L1367.52 306.323L1368.61 307.02C1368.91 307.219 1369.31 307.219 1369.61 306.92L1371.5 305.227C1371.7 305.127 1371.9 305.028 1372.1 305.127L1372.69 305.426C1372.89 305.526 1373.09 305.526 1373.29 305.326L1374.29 304.43C1374.49 304.33 1374.69 304.231 1374.88 304.33L1376.28 305.028C1376.48 305.127 1376.78 305.028 1376.88 304.829L1377.57 304.032L1382.55 297.657C1382.75 297.358 1382.65 296.96 1382.25 296.86L1381.16 296.661C1380.96 296.561 1380.86 296.361 1380.96 296.163L1382.65 294.07C1382.75 293.971 1382.55 293.673 1382.35 293.673Z" fill="white"/>
<path d="M1365.93 306.523C1365.83 306.423 1365.73 306.523 1365.73 306.623L1366.22 308.017C1366.22 308.116 1366.22 308.216 1366.22 308.316L1365.73 310.108C1365.73 310.208 1365.73 310.308 1365.83 310.407L1367.12 311.404C1367.22 311.503 1367.42 311.503 1367.52 311.404L1368.91 310.208C1369.01 310.108 1369.11 310.108 1369.21 310.108L1370.8 309.91C1370.9 309.91 1370.9 309.71 1370.9 309.71L1365.93 306.523Z" fill="white"/>
<path d="M1365.43 311.204C1365.33 311.104 1365.23 311.104 1365.13 311.204L1364.03 311.701C1363.93 311.701 1363.93 311.801 1363.93 311.901L1361.55 317.777C1361.55 317.777 1361.55 317.777 1361.64 317.777L1362.14 317.579C1362.14 317.579 1362.14 317.579 1362.24 317.579V317.678L1360.55 320.467C1360.55 320.567 1360.55 320.567 1360.65 320.567L1366.82 314.291C1366.92 314.192 1366.92 314.192 1366.92 314.092L1367.02 312.498C1367.02 312.398 1367.02 312.299 1366.92 312.2L1365.43 311.204Z" fill="white"/>
<path d="M830 150.278H846.091V228.255H830V150.278Z" fill="white"/>
<path d="M892.067 219.054C885.63 219.054 879.883 218.132 874.825 216.062C869.998 213.991 866.09 211.233 863.331 207.322C860.573 203.411 859.194 198.812 859.194 193.292C859.194 188.002 860.573 183.17 863.102 179.259C865.86 175.348 869.538 172.359 874.596 170.058C879.423 167.991 885.4 166.839 892.067 166.839C893.906 166.839 895.744 167.069 897.354 167.3C899.193 167.53 900.802 167.76 902.411 168.218L932.756 168.449V180.181C928.617 180.181 924.48 179.72 920.342 178.571C916.204 177.419 912.296 176.27 909.308 175.121L908.848 174.199C911.606 175.579 914.135 176.961 916.664 179.029C918.963 180.869 921.031 183.17 922.411 185.471C923.79 188.002 924.71 190.761 924.71 193.98C924.71 199.27 923.33 203.642 920.802 207.322C918.043 211.002 914.365 213.991 909.537 215.832C904.48 218.132 898.733 219.054 892.067 219.054ZM912.296 252.865V249.876C912.296 246.195 911.147 243.664 908.848 242.054C906.549 240.675 903.331 239.984 899.193 239.984H880.572C876.895 239.984 873.906 239.753 871.377 239.065C868.849 238.604 867.009 237.683 865.63 236.764C864.251 235.615 863.102 234.463 862.412 233.084C861.722 231.705 861.492 230.095 861.492 228.482C861.492 225.263 862.642 222.734 864.711 221.122C866.78 219.512 869.538 218.363 873.216 217.902C876.664 217.441 880.572 217.214 884.94 217.441L892.526 218.824C887.469 219.054 883.791 219.512 881.262 220.203C878.734 220.894 877.584 222.274 877.584 224.344C877.584 225.493 878.044 226.415 878.963 227.103C879.883 227.794 881.262 228.024 883.101 228.024H902.641C907.929 228.024 912.526 228.713 916.434 229.864C920.342 231.013 923.101 233.084 925.169 235.843C927.238 238.604 928.158 242.515 928.158 247.344V253.095H912.296V252.865ZM892.067 207.783C895.515 207.783 898.503 207.322 901.262 206.173C903.79 205.021 905.859 203.411 907.239 201.341C908.618 199.27 909.308 196.742 909.308 193.75C909.308 190.761 908.618 188.002 907.239 185.931C905.859 183.861 903.79 182.021 901.262 180.869C898.733 179.72 895.744 179.029 892.067 179.029C888.618 179.029 885.63 179.72 882.871 180.869C880.113 182.021 878.274 183.631 876.664 185.931C875.285 188.002 874.596 190.761 874.596 193.75C874.596 196.742 875.285 199.27 876.664 201.341C878.044 203.411 880.113 205.021 882.642 206.173C885.63 207.092 888.618 207.783 892.067 207.783Z" fill="white"/>
<path d="M940.803 168.219H956.434V228.253H940.803V168.219ZM984.25 167.07C987.928 167.07 991.376 167.531 994.595 168.45C997.813 169.371 1000.57 170.981 1002.87 172.821C1005.17 174.892 1007.01 177.42 1008.39 180.412C1009.77 183.401 1010.23 187.081 1010.23 191.453V228.253H994.595V194.442C994.595 189.382 993.445 185.702 990.917 183.401C988.388 181.1 984.48 179.951 978.963 179.951C974.825 179.951 970.917 180.87 967.699 182.252C964.25 183.862 961.492 185.932 959.423 188.23C957.354 190.762 956.205 193.29 955.745 195.821L955.515 189.613C955.975 186.851 956.894 184.092 958.273 181.331C959.653 178.572 961.722 176.271 964.02 173.97C966.549 171.669 969.308 170.059 972.756 168.68C976.204 167.301 979.882 167.07 984.25 167.07Z" fill="white"/>
<path d="M1039.65 142V155.8H1021.49V142H1039.65ZM1022.87 168.223H1038.5V228.256H1022.87V168.223Z" fill="white"/>
<path d="M1047.47 168.219H1093.9V180.408H1047.47V168.219ZM1062.87 151.888H1078.5V228.252H1062.87V151.888Z" fill="white"/>
<path d="M1155.28 208.242H1170.45C1169.76 212.383 1168.15 216.063 1165.4 219.283C1162.64 222.505 1158.96 225.033 1154.13 226.873C1149.3 228.714 1143.56 229.635 1136.89 229.635C1129.3 229.635 1122.41 228.483 1116.66 225.955C1110.68 223.424 1106.32 219.974 1102.87 215.372C1099.65 210.773 1098.04 205.022 1098.04 198.583C1098.04 191.911 1099.65 186.39 1102.87 181.561C1106.09 176.959 1110.45 173.279 1116.2 170.751C1121.95 168.219 1128.62 167.07 1136.43 167.07C1144.25 167.07 1150.91 168.219 1155.97 170.751C1161.26 173.279 1165.17 176.959 1167.69 182.022C1170.22 187.081 1171.37 193.52 1170.91 201.342H1113.9C1114.36 204.331 1115.51 207.093 1117.35 209.624C1119.19 212.152 1121.72 213.992 1125.17 215.602C1128.39 216.985 1132.29 217.673 1136.89 217.673C1141.95 217.673 1146.08 216.754 1149.3 215.144C1152.29 213.304 1154.36 211.003 1155.28 208.242ZM1135.51 178.799C1129.77 178.799 1124.94 180.182 1121.49 182.71C1117.81 185.241 1115.51 188.461 1114.59 192.141H1155.28C1154.82 188.23 1152.98 185.011 1149.53 182.48C1146.08 180.182 1141.49 178.799 1135.51 178.799Z" fill="white"/>
<g clip-path="url(#clip0)">
<path d="M162.668 298.149C160.218 298.149 158.198 300.098 158.198 302.555V311.873V321.191H162.668V311.873V302.555H167.998H173.327V298.149H167.998H162.668Z" fill="#E1E1E6"/>
<path d="M199.975 309.628V302.513C199.975 300.098 197.998 298.107 195.505 298.107H188.284H181.063C178.614 298.107 176.593 300.056 176.593 302.513V309.628V316.744C176.593 319.158 178.571 321.149 181.063 321.149H188.284H195.505C197.955 321.149 199.975 319.201 199.975 316.744V309.628ZM195.505 309.628V316.744H188.284H181.063V309.628V302.513H188.284H195.505V309.628Z" fill="#E1E1E6"/>
<path d="M208.915 298.149C206.465 298.149 204.445 300.098 204.445 302.555V309.67V316.786C204.445 319.2 206.422 321.191 208.915 321.191L224.646 320.979V316.786H208.915V309.67V302.555H224.646V298.361L208.915 298.149Z" fill="#E1E1E6"/>
<path d="M250.266 298.149H244.206L235.352 307.425H233.589V298.149H229.12V309.628V321.149H233.589V311.83H235.825H236.168L245.366 321.149H251.512L239.693 309.12L250.266 298.149Z" fill="#E1E1E6"/>
<path d="M256.924 316.744V311.831L275.836 311.619V307.426V302.513C275.836 300.098 273.857 298.107 271.364 298.107H264.145H256.924C254.474 298.107 252.454 300.056 252.454 302.513V309.628V316.744C252.454 319.158 254.431 321.149 256.924 321.149L275.836 320.938V316.744H256.924ZM256.924 302.513H264.145H271.364V307.426H266.379H256.924V302.513Z" fill="#E1E1E6"/>
<path d="M287.052 291.415H285.334L282.583 294.761V298.107H279.187V302.512L282.583 302.47V316.744C282.583 319.158 284.56 321.149 287.052 321.149L294.274 320.937V316.744H287.052V302.428L294.919 302.301V298.107H287.052V291.415Z" fill="#E1E1E6"/>
<path d="M318.472 311.831C318.472 309.416 316.495 307.426 314.002 307.426H308.371H302.74V302.513H318.472V298.319L302.74 298.107C300.291 298.107 298.271 300.056 298.271 302.513V307.426C298.271 309.84 300.248 311.831 302.74 311.831H308.371H314.002V316.744H298.271V320.938L314.002 321.149C316.451 321.149 318.472 319.201 318.472 316.744V311.831Z" fill="#E1E1E6"/>
<path d="M341.81 298.149H334.589H327.367C324.918 298.149 322.898 300.098 322.898 302.555V309.67V316.786C322.898 319.2 324.875 321.191 327.367 321.191L346.279 320.979V316.786H327.367V311.873L346.279 311.661V307.468V302.555C346.279 300.098 344.302 298.149 341.81 298.149ZM341.81 307.425H327.367V302.512H334.589H341.81V307.425Z" fill="#E1E1E6"/>
<path d="M369.661 298.149L350.749 298.361V302.555H369.661V307.468L350.749 307.68V311.873V316.786C350.749 319.2 352.726 321.191 355.218 321.191H362.439H369.661C372.11 321.191 374.13 319.243 374.13 316.786V309.67V302.555C374.087 300.098 372.11 298.149 369.661 298.149ZM369.661 316.744H362.439H355.218V311.83H369.661V316.744Z" fill="#E1E1E6"/>
<path d="M385.312 302.428L393.177 302.301V298.108H385.312V291.373H383.592L380.84 294.719V298.065H377.445V302.47L380.84 302.428V316.702C380.84 319.116 382.819 321.107 385.312 321.107L392.531 320.895V316.702H385.312V302.428Z" fill="#E1E1E6"/>
<path d="M146.38 283.07L139.116 282.011C138.901 281.969 138.686 282.054 138.6 282.138L135.506 286.12C135.291 286.374 135.248 286.713 135.334 287.009C135.42 287.306 135.162 287.56 134.861 287.518L132.325 286.967C131.938 286.882 131.508 287.009 131.251 287.348L121.193 300.055C121.021 300.309 120.677 300.394 120.377 300.267L116.551 298.573C116.208 298.403 115.821 298.445 115.52 298.657L113.586 299.97C113.285 300.182 112.855 300.224 112.511 300.055L111.566 299.589C110.964 299.293 110.233 299.632 110.061 300.267L109.374 303.274C109.202 303.994 109.503 304.714 110.147 305.095L111.609 305.985L116.294 308.823L118.571 310.221C119.216 310.602 120.033 310.517 120.592 310.051L124.417 306.747C124.718 306.493 125.19 306.409 125.534 306.62L126.695 307.213C127.082 307.425 127.554 307.34 127.855 307.044L129.789 305.265C130.09 304.968 130.563 304.926 130.907 305.095L133.786 306.409C134.216 306.62 134.732 306.493 135.033 306.112L136.365 304.418L146.466 291.668C146.938 291.076 146.637 290.186 145.864 290.017L143.629 289.508C143.156 289.424 142.941 288.831 143.285 288.492L146.767 284.214C147.11 283.706 146.896 283.155 146.38 283.07Z" fill="#8257E6"/>
<path d="M113.069 308.738C112.854 308.611 112.639 308.822 112.725 309.034L113.8 311.83C113.886 312.041 113.886 312.253 113.843 312.465L112.897 316.108C112.854 316.362 112.94 316.616 113.112 316.743L115.82 318.818C116.078 318.988 116.422 318.988 116.636 318.776L119.473 316.319C119.645 316.192 119.86 316.108 120.032 316.065L123.255 315.726C123.47 315.684 123.556 315.388 123.341 315.26L113.069 308.738Z" fill="#8257E6"/>
<path d="M112.124 318.142C111.952 318.015 111.694 317.973 111.479 318.058L109.201 319.159C109.072 319.201 108.986 319.328 108.9 319.455L104.044 331.273C104.044 331.315 104.044 331.315 104.044 331.358C104.086 331.4 104.129 331.442 104.215 331.442L105.333 331.019C105.376 331.019 105.419 331.019 105.462 331.019C105.505 331.061 105.548 331.146 105.505 331.188L102.023 336.822C101.937 336.949 102.109 337.076 102.195 336.949L114.789 324.496C114.918 324.369 114.96 324.242 115.003 324.072L115.261 320.853C115.261 320.641 115.175 320.472 115.046 320.345L112.124 318.142Z" fill="#8257E6"/>
</g>
<defs>
<radialGradient id="paint0_radial" cx="0" cy="0" r="1" gradientUnits="userSpaceOnUse" gradientTransform="translate(1371.22 208.307) scale(142.498 142.582)">
<stop stop-color="#68E5A0"/>
<stop offset="0.00567427" stop-color="#04D361"/>
<stop offset="0.584253" stop-color="#04D361" stop-opacity="0"/>
</radialGradient>
<linearGradient id="paint1_linear" x1="1371.52" y1="214.304" x2="1371.52" y2="335.726" gradientUnits="userSpaceOnUse">
<stop stop-color="#06B656"/>
<stop offset="0.380208" stop-color="#08994A" stop-opacity="0"/>
</linearGradient>
<linearGradient id="paint2_linear" x1="1371.52" y1="214.304" x2="1371.52" y2="335.726" gradientUnits="userSpaceOnUse">
<stop stop-color="#06B656"/>
<stop offset="0.4633" stop-color="#08994A" stop-opacity="0"/>
</linearGradient>
<clipPath id="clip0">
<rect width="291.176" height="55" fill="white" transform="translate(102 282)"/>
</clipPath>
</defs>
</svg>
