<svg width="1584" height="396" viewBox="0 0 1584 396" fill="none" xmlns="http://www.w3.org/2000/svg">
<g clip-path="url(#clip0_1021_286)">
<path d="M1584 0H0V396H1584V0Z" fill="#121214"/>
<circle cx="1582.5" cy="197.5" r="709.5" fill="#161618"/>
<circle cx="1582.5" cy="197.5" r="509.072" fill="#18181B"/>
<circle cx="1582.5" cy="197.5" r="220.219" fill="#1B1B1E"/>
<path d="M730.8 267.8C724.8 267.8 721.12 265.12 719.76 259.76C717.28 260.72 714.36 261.2 711 261.2C704.52 261.2 699.56 259.36 696.12 255.68C692.68 252 690.96 246.8 690.96 240.08V195.92C690.96 189.2 692.68 184 696.12 180.32C699.56 176.64 704.52 174.8 711 174.8C717.48 174.8 722.44 176.64 725.88 180.32C729.32 184 731.04 189.2 731.04 195.92V240.08C731.04 245.68 729.8 250.28 727.32 253.88C727.8 254.68 728.4 255.2 729.12 255.44C729.84 255.68 730.88 255.8 732.24 255.8H734.28V267.8H730.8ZM711 249.2C715.56 249.2 717.84 246.44 717.84 240.92V195.08C717.84 189.56 715.56 186.8 711 186.8C706.44 186.8 704.16 189.56 704.16 195.08V240.92C704.16 246.44 706.44 249.2 711 249.2ZM759.167 261.2C752.767 261.2 747.887 259.4 744.527 255.8C741.167 252.12 739.487 246.88 739.487 240.08V176H752.687V241.04C752.687 243.92 753.247 246 754.367 247.28C755.567 248.56 757.247 249.2 759.407 249.2C761.567 249.2 763.207 248.56 764.327 247.28C765.527 246 766.127 243.92 766.127 241.04V176H778.847V240.08C778.847 246.88 777.167 252.12 773.807 255.8C770.447 259.4 765.567 261.2 759.167 261.2ZM788.248 176H801.448V260H788.248V176ZM808.694 248.24L833.174 188H809.894V176H847.334V187.76L822.854 248H847.334V260H808.694V248.24Z" fill="white"/>
<path d="M1010.87 219.5H921.5V130.125C921.5 126.344 918.406 123.25 914.625 123.25C910.844 123.25 907.75 126.344 907.75 130.125V219.5C907.75 227.062 913.937 233.25 921.5 233.25H1010.87C1014.66 233.25 1017.75 230.156 1017.75 226.375C1017.75 222.594 1014.66 219.5 1010.87 219.5Z" fill="#633BBC"/>
<path d="M1031.5 95.75H949C941.437 95.75 935.25 101.937 935.25 109.5V192C935.25 199.562 941.437 205.75 949 205.75H1031.5C1039.06 205.75 1045.25 199.562 1045.25 192V109.5C1045.25 101.937 1039.06 95.75 1031.5 95.75ZM990.319 185.125C986.262 185.125 983.1 181.894 983.1 177.906C983.1 173.85 986.331 170.756 990.319 170.756C994.375 170.756 997.469 173.85 997.469 177.906C997.4 181.894 994.375 185.125 990.319 185.125V185.125ZM1007.51 142.706C1003.17 149.1 999.05 151.025 996.781 155.15C996.231 156.112 995.887 156.937 995.681 158.519C995.337 161.2 993.206 163.194 990.525 163.194H990.319C987.294 163.194 984.887 160.581 985.162 157.556C985.369 155.631 985.781 153.637 986.881 151.781C989.7 146.762 994.994 143.806 998.087 139.406C1001.39 134.731 999.531 126.069 990.25 126.069C986.056 126.069 983.306 128.269 981.587 130.881C980.281 132.875 977.669 133.562 975.469 132.6C972.581 131.362 971.344 127.787 973.131 125.244C976.637 120.156 982.481 116.375 990.181 116.375C998.637 116.375 1004.48 120.225 1007.44 125.037C1009.98 129.231 1011.42 136.931 1007.51 142.706Z" fill="#633BBC"/>
</g>
<defs>
<clipPath id="clip0_1021_286">
<rect width="1584" height="396" fill="white"/>
</clipPath>
</defs>
</svg>
