<svg width="1440" height="200" viewBox="0 0 1440 200" fill="none" xmlns="http://www.w3.org/2000/svg">
<g clip-path="url(#clip0)">
<rect width="1440" height="200" fill="#276CAD"/>
<path d="M55.2773 -28.4293L6.90966 -3.43381C3.09898 -1.46453 1.60149 3.23594 3.57078 7.04662L28.5662 55.4142C30.5355 59.2249 35.236 60.7224 39.0466 58.7531L87.4143 33.7577C91.2249 31.7884 92.7224 27.0879 90.7531 23.2772L65.7577 -25.0904C63.7884 -28.901 59.0879 -30.3985 55.2773 -28.4293ZM51.9389 32.3088L32.1623 26.0083L34.5229 18.5987L46.1877 22.3148L51.8292 -3.18402L59.4245 -1.50598L51.9389 32.3088V32.3088Z" fill="#215E98"/>
<path d="M55.2773 138.571L6.90966 163.566C3.09898 165.535 1.60149 170.236 3.57078 174.047L28.5662 222.414C30.5355 226.225 35.236 227.722 39.0466 225.753L87.4143 200.758C91.2249 198.788 92.7224 194.088 90.7531 190.277L65.7577 141.91C63.7884 138.099 59.0879 136.601 55.2773 138.571ZM51.9389 199.309L32.1623 193.008L34.5229 185.599L46.1877 189.315L51.8292 163.816L59.4245 165.494L51.9389 199.309V199.309Z" fill="#215E98"/>
<path d="M289.07 29.4372L256.634 32.4978C254.078 32.739 252.196 35.0133 252.437 37.5688L255.498 70.0049C255.739 72.5605 258.013 74.4426 260.569 74.2015L293.005 71.1409C295.56 70.8997 297.443 68.6254 297.201 66.0699L294.141 33.6337C293.9 31.0782 291.625 29.1961 289.07 29.4372ZM273.637 62.4052L264.068 54.4864L267.035 50.9012L272.679 55.5719L281.512 42.6794L285.353 45.309L273.637 62.4052V62.4052Z" fill="#215E98"/>
<path d="M418.394 124.289L393.001 144.701C391 146.31 390.681 149.244 392.289 151.245L412.701 176.638C414.31 178.639 417.244 178.958 419.245 177.35L444.638 156.937C446.639 155.329 446.958 152.394 445.35 150.394L424.937 125.001C423.329 123 420.394 122.681 418.394 124.289ZM423.661 160.307L411.313 158.965L411.816 154.338L419.099 155.13L419.374 139.505L424.028 139.585L423.661 160.307V160.307Z" fill="#215E98"/>
<path d="M131.988 82.3169L98.7485 84.536C96.1297 84.7108 94.1422 86.9827 94.317 89.6015L96.5361 122.841C96.711 125.46 98.9828 127.447 101.602 127.272L134.841 125.053C137.46 124.878 139.447 122.607 139.272 119.988L137.053 86.7484C136.878 84.1296 134.607 82.1421 131.988 82.3169ZM115.29 115.581L105.731 107.219L108.864 103.638L114.502 108.57L123.891 95.6401L127.743 98.4355L115.29 115.581V115.581Z" fill="#215E98"/>
<path d="M191.431 -0.160818L159.872 -10.8269C157.385 -11.6672 154.68 -10.3285 153.839 -7.84206L143.173 23.7176C142.333 26.2041 143.672 28.9096 146.158 29.7499L177.718 40.4159C180.204 41.2563 182.91 39.9176 183.75 37.4311L194.416 5.87143C195.256 3.38498 193.918 0.679514 191.431 -0.160818ZM163.278 24.1851L157.645 12.8022L161.91 10.692L165.232 17.4059L178.854 9.05135L181.343 13.1078L163.278 24.1851V24.1851Z" fill="#215E98"/>
<path d="M328.959 106.146L189.029 78.8932C178.004 76.7461 167.293 83.9655 165.146 94.9901L137.893 234.921C135.746 245.945 142.966 256.657 153.99 258.804L293.921 286.056C304.945 288.203 315.657 280.984 317.804 269.959L345.056 130.029C347.203 119.004 339.984 108.293 328.959 106.146ZM223.427 225.446L193.052 180.379L209.937 168.998L227.853 195.58L280.864 152.384L293.735 168.17L223.427 225.446V225.446Z" fill="#215E98"/>
<path d="M421.988 22.0683L367.748 29.5469C363.475 30.1361 360.479 34.0904 361.068 38.3637L368.547 92.6028C369.136 96.876 373.091 99.872 377.364 99.2828L431.603 91.8042C435.876 91.215 438.872 87.2607 438.283 82.9874L430.804 28.7483C430.215 24.4751 426.261 21.4791 421.988 22.0683ZM398.455 78.5343L381.817 65.929L386.54 59.6955L396.353 67.1305L410.253 44.8469L416.891 48.9848L398.455 78.5343V78.5343Z" fill="#215E98"/>
<path d="M630.04 90.16V116C630.04 118.133 630.493 119.653 631.4 120.56C632.307 121.413 633.88 121.84 636.12 121.84H641.48V128H634.92C630.867 128 627.827 127.067 625.8 125.2C623.773 123.333 622.76 120.267 622.76 116V90.16H617.08V84.16H622.76V73.12H630.04V84.16H641.48V90.16H630.04ZM669.421 128.72C665.314 128.72 661.581 127.787 658.221 125.92C654.914 124.053 652.301 121.413 650.381 118C648.514 114.533 647.581 110.533 647.581 106C647.581 101.52 648.541 97.5733 650.461 94.16C652.434 90.6933 655.101 88.0533 658.461 86.24C661.821 84.3733 665.581 83.44 669.741 83.44C673.901 83.44 677.661 84.3733 681.021 86.24C684.381 88.0533 687.021 90.6667 688.941 94.08C690.914 97.4933 691.901 101.467 691.901 106C691.901 110.533 690.887 114.533 688.861 118C686.887 121.413 684.194 124.053 680.781 125.92C677.367 127.787 673.581 128.72 669.421 128.72ZM669.421 122.32C672.034 122.32 674.487 121.707 676.781 120.48C679.074 119.253 680.914 117.413 682.301 114.96C683.741 112.507 684.461 109.52 684.461 106C684.461 102.48 683.767 99.4933 682.381 97.04C680.994 94.5867 679.181 92.7733 676.941 91.6C674.701 90.3733 672.274 89.76 669.661 89.76C666.994 89.76 664.541 90.3733 662.301 91.6C660.114 92.7733 658.354 94.5867 657.021 97.04C655.687 99.4933 655.021 102.48 655.021 106C655.021 109.573 655.661 112.587 656.941 115.04C658.274 117.493 660.034 119.333 662.221 120.56C664.407 121.733 666.807 122.32 669.421 122.32ZM706.673 128.64C704.273 128.64 702.299 127.947 700.753 126.56C699.259 125.12 698.513 123.36 698.513 121.28C698.513 119.147 699.259 117.36 700.753 115.92C702.299 114.48 704.273 113.76 706.673 113.76C709.019 113.76 710.939 114.48 712.433 115.92C713.979 117.36 714.753 119.147 714.753 121.28C714.753 123.36 713.979 125.12 712.433 126.56C710.939 127.947 709.019 128.64 706.673 128.64ZM719.491 105.44C719.491 100.693 720.291 96.5867 721.891 93.12C723.544 89.6 725.784 86.9333 728.611 85.12C731.437 83.2533 734.611 82.32 738.131 82.32C741.064 82.32 743.571 82.9333 745.651 84.16C747.784 85.3333 749.411 86.96 750.531 89.04V68.8H768.291V128H750.531V121.84C749.411 123.92 747.784 125.573 745.651 126.8C743.571 127.973 741.064 128.56 738.131 128.56C734.611 128.56 731.437 127.653 728.611 125.84C725.784 123.973 723.544 121.307 721.891 117.84C720.291 114.32 719.491 110.187 719.491 105.44ZM750.611 105.44C750.611 103.04 749.997 101.173 748.771 99.84C747.544 98.5067 745.971 97.84 744.051 97.84C742.131 97.84 740.557 98.5067 739.331 99.84C738.104 101.173 737.491 103.04 737.491 105.44C737.491 107.84 738.104 109.707 739.331 111.04C740.557 112.373 742.131 113.04 744.051 113.04C745.971 113.04 747.544 112.373 748.771 111.04C749.997 109.707 750.611 107.84 750.611 105.44ZM797.706 128.56C793.172 128.56 789.092 127.627 785.466 125.76C781.839 123.893 778.986 121.227 776.906 117.76C774.879 114.24 773.866 110.133 773.866 105.44C773.866 100.747 774.879 96.6667 776.906 93.2C778.986 89.68 781.839 86.9867 785.466 85.12C789.092 83.2533 793.172 82.32 797.706 82.32C802.239 82.32 806.319 83.2533 809.946 85.12C813.572 86.9867 816.399 89.68 818.426 93.2C820.506 96.6667 821.546 100.747 821.546 105.44C821.546 110.133 820.506 114.24 818.426 117.76C816.399 121.227 813.572 123.893 809.946 125.76C806.319 127.627 802.239 128.56 797.706 128.56ZM797.706 113.2C799.359 113.2 800.746 112.56 801.866 111.28C802.986 109.947 803.546 108 803.546 105.44C803.546 102.88 802.986 100.96 801.866 99.68C800.746 98.3467 799.359 97.68 797.706 97.68C796.052 97.68 794.666 98.3467 793.546 99.68C792.426 100.96 791.866 102.88 791.866 105.44C791.866 108 792.399 109.947 793.466 111.28C794.586 112.56 795.999 113.2 797.706 113.2Z" fill="#F9F9F9"/>
</g>
<defs>
<clipPath id="clip0">
<rect width="1440" height="200" fill="white"/>
</clipPath>
</defs>
</svg>
