<svg width="2102" height="1513" viewBox="0 0 2102 1513" fill="none" xmlns="http://www.w3.org/2000/svg">
<rect width="1862" height="966" rx="50" fill="#F8F8F8"/>
<path d="M0 50C0 22.3858 22.3858 0 50 0H1812C1839.61 0 1862 22.3858 1862 50V284H0V50Z" fill="#276CAC"/>
<rect x="369" y="123" width="1122" height="354" rx="20" fill="white"/>
<path d="M1425.6 314H1420.8C1419.92 314 1419.2 314.718 1419.2 315.6V317.2H1416V318.8H1417.6V328.4C1417.6 329.282 1418.32 330 1419.2 330H1427.2C1428.08 330 1428.8 329.282 1428.8 328.4V318.8H1430.4V317.2H1427.2V315.6C1427.2 314.718 1426.48 314 1425.6 314ZM1420.8 315.6H1425.6V317.2H1420.8V315.6ZM1427.2 328.4H1419.2V318.8H1427.2V328.4Z" fill="#BE6672"/>
<path d="M1425.6 371H1420.8C1419.92 371 1419.2 371.718 1419.2 372.6V374.2H1416V375.8H1417.6V385.4C1417.6 386.282 1418.32 387 1419.2 387H1427.2C1428.08 387 1428.8 386.282 1428.8 385.4V375.8H1430.4V374.2H1427.2V372.6C1427.2 371.718 1426.48 371 1425.6 371ZM1420.8 372.6H1425.6V374.2H1420.8V372.6ZM1427.2 385.4H1419.2V375.8H1427.2V385.4Z" fill="#BE6672"/>
<path d="M461.76 320.49L461.804 321.545C462.501 320.725 463.441 320.314 464.625 320.314C465.955 320.314 466.86 320.824 467.341 321.844C467.657 321.387 468.067 321.018 468.571 320.736C469.081 320.455 469.682 320.314 470.373 320.314C472.459 320.314 473.52 321.419 473.555 323.628V330H471.929V323.725C471.929 323.045 471.773 322.538 471.463 322.204C471.152 321.864 470.631 321.694 469.898 321.694C469.295 321.694 468.794 321.876 468.396 322.239C467.997 322.597 467.766 323.08 467.701 323.689V330H466.066V323.769C466.066 322.386 465.39 321.694 464.036 321.694C462.97 321.694 462.24 322.148 461.848 323.057V330H460.222V320.49H461.76ZM481.887 330C481.793 329.812 481.717 329.479 481.658 328.998C480.902 329.783 480 330.176 478.951 330.176C478.014 330.176 477.243 329.912 476.64 329.385C476.042 328.852 475.743 328.178 475.743 327.363C475.743 326.373 476.118 325.605 476.868 325.061C477.624 324.51 478.685 324.234 480.05 324.234H481.632V323.487C481.632 322.919 481.462 322.468 481.122 322.134C480.782 321.794 480.281 321.624 479.619 321.624C479.039 321.624 478.553 321.771 478.16 322.063C477.768 322.356 477.571 322.711 477.571 323.127H475.937C475.937 322.652 476.104 322.195 476.438 321.756C476.777 321.311 477.234 320.959 477.809 320.701C478.389 320.443 479.024 320.314 479.716 320.314C480.812 320.314 481.67 320.59 482.291 321.141C482.912 321.686 483.234 322.438 483.258 323.399V327.776C483.258 328.649 483.369 329.344 483.592 329.859V330H481.887ZM479.188 328.761C479.698 328.761 480.182 328.629 480.639 328.365C481.096 328.102 481.427 327.759 481.632 327.337V325.386H480.357C478.365 325.386 477.369 325.969 477.369 327.135C477.369 327.645 477.539 328.043 477.879 328.33C478.219 328.617 478.655 328.761 479.188 328.761ZM490.403 321.949C490.157 321.908 489.891 321.888 489.604 321.888C488.537 321.888 487.813 322.342 487.433 323.25V330H485.807V320.49H487.389L487.415 321.589C487.948 320.739 488.704 320.314 489.683 320.314C489.999 320.314 490.239 320.355 490.403 320.438V321.949ZM495.545 328.849C496.125 328.849 496.632 328.673 497.065 328.321C497.499 327.97 497.739 327.53 497.786 327.003H499.324C499.295 327.548 499.107 328.066 498.762 328.559C498.416 329.051 497.953 329.443 497.373 329.736C496.799 330.029 496.189 330.176 495.545 330.176C494.25 330.176 493.219 329.745 492.451 328.884C491.689 328.017 491.309 326.833 491.309 325.333V325.061C491.309 324.135 491.479 323.312 491.818 322.591C492.158 321.87 492.645 321.311 493.277 320.912C493.916 320.514 494.669 320.314 495.536 320.314C496.603 320.314 497.487 320.634 498.19 321.272C498.899 321.911 499.277 322.74 499.324 323.76H497.786C497.739 323.145 497.505 322.641 497.083 322.248C496.667 321.85 496.151 321.65 495.536 321.65C494.71 321.65 494.068 321.949 493.611 322.547C493.16 323.139 492.935 323.997 492.935 325.122V325.43C492.935 326.525 493.16 327.369 493.611 327.961C494.062 328.553 494.707 328.849 495.545 328.849ZM507.023 330C506.93 329.812 506.854 329.479 506.795 328.998C506.039 329.783 505.137 330.176 504.088 330.176C503.15 330.176 502.38 329.912 501.776 329.385C501.179 328.852 500.88 328.178 500.88 327.363C500.88 326.373 501.255 325.605 502.005 325.061C502.761 324.51 503.821 324.234 505.187 324.234H506.769V323.487C506.769 322.919 506.599 322.468 506.259 322.134C505.919 321.794 505.418 321.624 504.756 321.624C504.176 321.624 503.689 321.771 503.297 322.063C502.904 322.356 502.708 322.711 502.708 323.127H501.073C501.073 322.652 501.24 322.195 501.574 321.756C501.914 321.311 502.371 320.959 502.945 320.701C503.525 320.443 504.161 320.314 504.853 320.314C505.948 320.314 506.807 320.59 507.428 321.141C508.049 321.686 508.371 322.438 508.395 323.399V327.776C508.395 328.649 508.506 329.344 508.729 329.859V330H507.023ZM504.325 328.761C504.835 328.761 505.318 328.629 505.775 328.365C506.232 328.102 506.563 327.759 506.769 327.337V325.386H505.494C503.502 325.386 502.506 325.969 502.506 327.135C502.506 327.645 502.676 328.043 503.016 328.33C503.355 328.617 503.792 328.761 504.325 328.761ZM510.548 325.166C510.548 323.707 510.894 322.535 511.585 321.65C512.276 320.76 513.182 320.314 514.301 320.314C515.414 320.314 516.296 320.695 516.946 321.457V316.5H518.572V330H517.078L516.999 328.98C516.349 329.777 515.443 330.176 514.283 330.176C513.182 330.176 512.282 329.725 511.585 328.822C510.894 327.92 510.548 326.742 510.548 325.289V325.166ZM512.174 325.351C512.174 326.429 512.396 327.272 512.842 327.882C513.287 328.491 513.902 328.796 514.688 328.796C515.719 328.796 516.472 328.333 516.946 327.407V323.039C516.46 322.143 515.713 321.694 514.705 321.694C513.908 321.694 513.287 322.002 512.842 322.617C512.396 323.232 512.174 324.144 512.174 325.351ZM526.975 330C526.881 329.812 526.805 329.479 526.746 328.998C525.99 329.783 525.088 330.176 524.039 330.176C523.102 330.176 522.331 329.912 521.728 329.385C521.13 328.852 520.831 328.178 520.831 327.363C520.831 326.373 521.206 325.605 521.956 325.061C522.712 324.51 523.772 324.234 525.138 324.234H526.72V323.487C526.72 322.919 526.55 322.468 526.21 322.134C525.87 321.794 525.369 321.624 524.707 321.624C524.127 321.624 523.641 321.771 523.248 322.063C522.855 322.356 522.659 322.711 522.659 323.127H521.024C521.024 322.652 521.191 322.195 521.525 321.756C521.865 321.311 522.322 320.959 522.896 320.701C523.477 320.443 524.112 320.314 524.804 320.314C525.899 320.314 526.758 320.59 527.379 321.141C528 321.686 528.322 322.438 528.346 323.399V327.776C528.346 328.649 528.457 329.344 528.68 329.859V330H526.975ZM524.276 328.761C524.786 328.761 525.27 328.629 525.727 328.365C526.184 328.102 526.515 327.759 526.72 327.337V325.386H525.445C523.453 325.386 522.457 325.969 522.457 327.135C522.457 327.645 522.627 328.043 522.967 328.33C523.307 328.617 523.743 328.761 524.276 328.761Z" fill="#878989"/>
<path d="M461.76 378.49L461.804 379.545C462.501 378.725 463.441 378.314 464.625 378.314C465.955 378.314 466.86 378.824 467.341 379.844C467.657 379.387 468.067 379.018 468.571 378.736C469.081 378.455 469.682 378.314 470.373 378.314C472.459 378.314 473.52 379.419 473.555 381.628V388H471.929V381.725C471.929 381.045 471.773 380.538 471.463 380.204C471.152 379.864 470.631 379.694 469.898 379.694C469.295 379.694 468.794 379.876 468.396 380.239C467.997 380.597 467.766 381.08 467.701 381.689V388H466.066V381.769C466.066 380.386 465.39 379.694 464.036 379.694C462.97 379.694 462.24 380.148 461.848 381.057V388H460.222V378.49H461.76ZM481.887 388C481.793 387.812 481.717 387.479 481.658 386.998C480.902 387.783 480 388.176 478.951 388.176C478.014 388.176 477.243 387.912 476.64 387.385C476.042 386.852 475.743 386.178 475.743 385.363C475.743 384.373 476.118 383.605 476.868 383.061C477.624 382.51 478.685 382.234 480.05 382.234H481.632V381.487C481.632 380.919 481.462 380.468 481.122 380.134C480.782 379.794 480.281 379.624 479.619 379.624C479.039 379.624 478.553 379.771 478.16 380.063C477.768 380.356 477.571 380.711 477.571 381.127H475.937C475.937 380.652 476.104 380.195 476.438 379.756C476.777 379.311 477.234 378.959 477.809 378.701C478.389 378.443 479.024 378.314 479.716 378.314C480.812 378.314 481.67 378.59 482.291 379.141C482.912 379.686 483.234 380.438 483.258 381.399V385.776C483.258 386.649 483.369 387.344 483.592 387.859V388H481.887ZM479.188 386.761C479.698 386.761 480.182 386.629 480.639 386.365C481.096 386.102 481.427 385.759 481.632 385.337V383.386H480.357C478.365 383.386 477.369 383.969 477.369 385.135C477.369 385.645 477.539 386.043 477.879 386.33C478.219 386.617 478.655 386.761 479.188 386.761ZM490.403 379.949C490.157 379.908 489.891 379.888 489.604 379.888C488.537 379.888 487.813 380.342 487.433 381.25V388H485.807V378.49H487.389L487.415 379.589C487.948 378.739 488.704 378.314 489.683 378.314C489.999 378.314 490.239 378.355 490.403 378.438V379.949ZM495.545 386.849C496.125 386.849 496.632 386.673 497.065 386.321C497.499 385.97 497.739 385.53 497.786 385.003H499.324C499.295 385.548 499.107 386.066 498.762 386.559C498.416 387.051 497.953 387.443 497.373 387.736C496.799 388.029 496.189 388.176 495.545 388.176C494.25 388.176 493.219 387.745 492.451 386.884C491.689 386.017 491.309 384.833 491.309 383.333V383.061C491.309 382.135 491.479 381.312 491.818 380.591C492.158 379.87 492.645 379.311 493.277 378.912C493.916 378.514 494.669 378.314 495.536 378.314C496.603 378.314 497.487 378.634 498.19 379.272C498.899 379.911 499.277 380.74 499.324 381.76H497.786C497.739 381.145 497.505 380.641 497.083 380.248C496.667 379.85 496.151 379.65 495.536 379.65C494.71 379.65 494.068 379.949 493.611 380.547C493.16 381.139 492.935 381.997 492.935 383.122V383.43C492.935 384.525 493.16 385.369 493.611 385.961C494.062 386.553 494.707 386.849 495.545 386.849ZM507.023 388C506.93 387.812 506.854 387.479 506.795 386.998C506.039 387.783 505.137 388.176 504.088 388.176C503.15 388.176 502.38 387.912 501.776 387.385C501.179 386.852 500.88 386.178 500.88 385.363C500.88 384.373 501.255 383.605 502.005 383.061C502.761 382.51 503.821 382.234 505.187 382.234H506.769V381.487C506.769 380.919 506.599 380.468 506.259 380.134C505.919 379.794 505.418 379.624 504.756 379.624C504.176 379.624 503.689 379.771 503.297 380.063C502.904 380.356 502.708 380.711 502.708 381.127H501.073C501.073 380.652 501.24 380.195 501.574 379.756C501.914 379.311 502.371 378.959 502.945 378.701C503.525 378.443 504.161 378.314 504.853 378.314C505.948 378.314 506.807 378.59 507.428 379.141C508.049 379.686 508.371 380.438 508.395 381.399V385.776C508.395 386.649 508.506 387.344 508.729 387.859V388H507.023ZM504.325 386.761C504.835 386.761 505.318 386.629 505.775 386.365C506.232 386.102 506.563 385.759 506.769 385.337V383.386H505.494C503.502 383.386 502.506 383.969 502.506 385.135C502.506 385.645 502.676 386.043 503.016 386.33C503.355 386.617 503.792 386.761 504.325 386.761ZM510.548 383.166C510.548 381.707 510.894 380.535 511.585 379.65C512.276 378.76 513.182 378.314 514.301 378.314C515.414 378.314 516.296 378.695 516.946 379.457V374.5H518.572V388H517.078L516.999 386.98C516.349 387.777 515.443 388.176 514.283 388.176C513.182 388.176 512.282 387.725 511.585 386.822C510.894 385.92 510.548 384.742 510.548 383.289V383.166ZM512.174 383.351C512.174 384.429 512.396 385.272 512.842 385.882C513.287 386.491 513.902 386.796 514.688 386.796C515.719 386.796 516.472 386.333 516.946 385.407V381.039C516.46 380.143 515.713 379.694 514.705 379.694C513.908 379.694 513.287 380.002 512.842 380.617C512.396 381.232 512.174 382.144 512.174 383.351ZM526.975 388C526.881 387.812 526.805 387.479 526.746 386.998C525.99 387.783 525.088 388.176 524.039 388.176C523.102 388.176 522.331 387.912 521.728 387.385C521.13 386.852 520.831 386.178 520.831 385.363C520.831 384.373 521.206 383.605 521.956 383.061C522.712 382.51 523.772 382.234 525.138 382.234H526.72V381.487C526.72 380.919 526.55 380.468 526.21 380.134C525.87 379.794 525.369 379.624 524.707 379.624C524.127 379.624 523.641 379.771 523.248 380.063C522.855 380.356 522.659 380.711 522.659 381.127H521.024C521.024 380.652 521.191 380.195 521.525 379.756C521.865 379.311 522.322 378.959 522.896 378.701C523.477 378.443 524.112 378.314 524.804 378.314C525.899 378.314 526.758 378.59 527.379 379.141C528 379.686 528.322 380.438 528.346 381.399V385.776C528.346 386.649 528.457 387.344 528.68 387.859V388H526.975ZM524.276 386.761C524.786 386.761 525.27 386.629 525.727 386.365C526.184 386.102 526.515 385.759 526.72 385.337V383.386H525.445C523.453 383.386 522.457 383.969 522.457 385.135C522.457 385.645 522.627 386.043 522.967 386.33C523.307 386.617 523.743 386.761 524.276 386.761Z" fill="#878989"/>
<path d="M459 383.5H529.664V384.396H459V383.5Z" fill="#878989"/>
<rect x="1085" y="198" width="297" height="44" rx="10" fill="#EBEBEB"/>
<rect x="1387" y="198" width="45" height="44" rx="10" fill="#276CAC"/>
<path d="M1408 219.333L1410 221.333L1416.67 214.667" stroke="#F9F9F9" stroke-width="2" stroke-linecap="round" stroke-linejoin="round"/>
<path d="M1416 220V224.667C1416 225.02 1415.86 225.359 1415.61 225.609C1415.36 225.86 1415.02 226 1414.67 226H1405.33C1404.98 226 1404.64 225.86 1404.39 225.609C1404.14 225.359 1404 225.02 1404 224.667V215.333C1404 214.98 1404.14 214.641 1404.39 214.391C1404.64 214.14 1404.98 214 1405.33 214H1412.67" stroke="#F9F9F9" stroke-width="2" stroke-linecap="round" stroke-linejoin="round"/>
<path d="M441.195 204.562L448.5 225.188L455.766 204.562H463.461V233H457.582V225.227L458.168 211.809L450.492 233H446.469L438.812 211.828L439.398 225.227V233H433.539V204.562H441.195ZM474.164 233H468.5V211.867H474.164V233ZM468.168 206.398C468.168 205.552 468.448 204.855 469.008 204.309C469.581 203.762 470.355 203.488 471.332 203.488C472.296 203.488 473.064 203.762 473.637 204.309C474.21 204.855 474.496 205.552 474.496 206.398C474.496 207.258 474.203 207.961 473.617 208.508C473.044 209.055 472.283 209.328 471.332 209.328C470.382 209.328 469.613 209.055 469.027 208.508C468.454 207.961 468.168 207.258 468.168 206.398ZM484.027 211.867L484.203 214.309C485.714 212.421 487.738 211.477 490.277 211.477C492.517 211.477 494.184 212.134 495.277 213.449C496.371 214.764 496.931 216.73 496.957 219.348V233H491.312V219.484C491.312 218.286 491.052 217.421 490.531 216.887C490.01 216.34 489.145 216.066 487.934 216.066C486.345 216.066 485.154 216.743 484.359 218.098V233H478.715V211.867H484.027ZM506.762 214.172C508.259 212.375 510.141 211.477 512.406 211.477C516.99 211.477 519.314 214.139 519.379 219.465V233H513.734V219.621C513.734 218.41 513.474 217.518 512.953 216.945C512.432 216.359 511.566 216.066 510.355 216.066C508.702 216.066 507.504 216.704 506.762 217.98V233H501.117V203H506.762V214.172ZM535.883 233C535.622 232.492 535.434 231.861 535.316 231.105C533.949 232.629 532.172 233.391 529.984 233.391C527.914 233.391 526.195 232.792 524.828 231.594C523.474 230.396 522.797 228.885 522.797 227.062C522.797 224.823 523.624 223.104 525.277 221.906C526.944 220.708 529.346 220.103 532.484 220.09H535.082V218.879C535.082 217.902 534.828 217.121 534.32 216.535C533.826 215.949 533.038 215.656 531.957 215.656C531.007 215.656 530.258 215.884 529.711 216.34C529.177 216.796 528.91 217.421 528.91 218.215H523.266C523.266 216.991 523.643 215.858 524.398 214.816C525.154 213.775 526.221 212.961 527.602 212.375C528.982 211.776 530.531 211.477 532.25 211.477C534.854 211.477 536.918 212.134 538.441 213.449C539.978 214.751 540.746 216.587 540.746 218.957V228.117C540.759 230.122 541.039 231.639 541.586 232.668V233H535.883ZM531.215 229.074C532.048 229.074 532.816 228.892 533.52 228.527C534.223 228.15 534.743 227.648 535.082 227.023V223.391H532.973C530.147 223.391 528.643 224.367 528.461 226.32L528.441 226.652C528.441 227.355 528.689 227.935 529.184 228.391C529.678 228.846 530.355 229.074 531.215 229.074ZM556.527 227.16C556.527 226.47 556.182 225.93 555.492 225.539C554.815 225.135 553.721 224.777 552.211 224.465C547.185 223.41 544.672 221.275 544.672 218.059C544.672 216.184 545.447 214.621 546.996 213.371C548.559 212.108 550.596 211.477 553.109 211.477C555.792 211.477 557.934 212.108 559.535 213.371C561.15 214.634 561.957 216.275 561.957 218.293H556.312C556.312 217.486 556.052 216.822 555.531 216.301C555.01 215.767 554.197 215.5 553.09 215.5C552.139 215.5 551.404 215.715 550.883 216.145C550.362 216.574 550.102 217.121 550.102 217.785C550.102 218.41 550.395 218.918 550.98 219.309C551.579 219.686 552.582 220.018 553.988 220.305C555.395 220.578 556.579 220.891 557.543 221.242C560.525 222.336 562.016 224.23 562.016 226.926C562.016 228.853 561.189 230.415 559.535 231.613C557.882 232.798 555.746 233.391 553.129 233.391C551.358 233.391 549.783 233.078 548.402 232.453C547.035 231.815 545.961 230.949 545.18 229.855C544.398 228.749 544.008 227.557 544.008 226.281H549.359C549.411 227.284 549.783 228.052 550.473 228.586C551.163 229.12 552.087 229.387 553.246 229.387C554.327 229.387 555.141 229.185 555.688 228.781C556.247 228.365 556.527 227.824 556.527 227.16ZM582.387 206.672V211.867H586V216.008H582.387V226.555C582.387 227.336 582.536 227.896 582.836 228.234C583.135 228.573 583.708 228.742 584.555 228.742C585.18 228.742 585.733 228.697 586.215 228.605V232.883C585.108 233.221 583.969 233.391 582.797 233.391C578.839 233.391 576.82 231.392 576.742 227.395V216.008H573.656V211.867H576.742V206.672H582.387ZM601.391 233C601.13 232.492 600.941 231.861 600.824 231.105C599.457 232.629 597.68 233.391 595.492 233.391C593.422 233.391 591.703 232.792 590.336 231.594C588.982 230.396 588.305 228.885 588.305 227.062C588.305 224.823 589.132 223.104 590.785 221.906C592.452 220.708 594.854 220.103 597.992 220.09H600.59V218.879C600.59 217.902 600.336 217.121 599.828 216.535C599.333 215.949 598.546 215.656 597.465 215.656C596.514 215.656 595.766 215.884 595.219 216.34C594.685 216.796 594.418 217.421 594.418 218.215H588.773C588.773 216.991 589.151 215.858 589.906 214.816C590.661 213.775 591.729 212.961 593.109 212.375C594.49 211.776 596.039 211.477 597.758 211.477C600.362 211.477 602.426 212.134 603.949 213.449C605.486 214.751 606.254 216.587 606.254 218.957V228.117C606.267 230.122 606.547 231.639 607.094 232.668V233H601.391ZM596.723 229.074C597.556 229.074 598.324 228.892 599.027 228.527C599.73 228.15 600.251 227.648 600.59 227.023V223.391H598.48C595.655 223.391 594.151 224.367 593.969 226.32L593.949 226.652C593.949 227.355 594.197 227.935 594.691 228.391C595.186 228.846 595.863 229.074 596.723 229.074ZM622.035 227.16C622.035 226.47 621.69 225.93 621 225.539C620.323 225.135 619.229 224.777 617.719 224.465C612.693 223.41 610.18 221.275 610.18 218.059C610.18 216.184 610.954 214.621 612.504 213.371C614.066 212.108 616.104 211.477 618.617 211.477C621.299 211.477 623.441 212.108 625.043 213.371C626.658 214.634 627.465 216.275 627.465 218.293H621.82C621.82 217.486 621.56 216.822 621.039 216.301C620.518 215.767 619.704 215.5 618.598 215.5C617.647 215.5 616.911 215.715 616.391 216.145C615.87 216.574 615.609 217.121 615.609 217.785C615.609 218.41 615.902 218.918 616.488 219.309C617.087 219.686 618.09 220.018 619.496 220.305C620.902 220.578 622.087 220.891 623.051 221.242C626.033 222.336 627.523 224.23 627.523 226.926C627.523 228.853 626.697 230.415 625.043 231.613C623.389 232.798 621.254 233.391 618.637 233.391C616.866 233.391 615.29 233.078 613.91 232.453C612.543 231.815 611.469 230.949 610.688 229.855C609.906 228.749 609.516 227.557 609.516 226.281H614.867C614.919 227.284 615.29 228.052 615.98 228.586C616.671 229.12 617.595 229.387 618.754 229.387C619.835 229.387 620.648 229.185 621.195 228.781C621.755 228.365 622.035 227.824 622.035 227.16ZM638.852 224.523L636.82 226.555V233H631.176V203H636.82V219.621L637.914 218.215L643.324 211.867H650.102L642.465 220.676L650.766 233H644.281L638.852 224.523ZM663.988 227.16C663.988 226.47 663.643 225.93 662.953 225.539C662.276 225.135 661.182 224.777 659.672 224.465C654.646 223.41 652.133 221.275 652.133 218.059C652.133 216.184 652.908 214.621 654.457 213.371C656.02 212.108 658.057 211.477 660.57 211.477C663.253 211.477 665.395 212.108 666.996 213.371C668.611 214.634 669.418 216.275 669.418 218.293H663.773C663.773 217.486 663.513 216.822 662.992 216.301C662.471 215.767 661.658 215.5 660.551 215.5C659.6 215.5 658.865 215.715 658.344 216.145C657.823 216.574 657.562 217.121 657.562 217.785C657.562 218.41 657.855 218.918 658.441 219.309C659.04 219.686 660.043 220.018 661.449 220.305C662.855 220.578 664.04 220.891 665.004 221.242C667.986 222.336 669.477 224.23 669.477 226.926C669.477 228.853 668.65 230.415 666.996 231.613C665.342 232.798 663.207 233.391 660.59 233.391C658.819 233.391 657.243 233.078 655.863 232.453C654.496 231.815 653.422 230.949 652.641 229.855C651.859 228.749 651.469 227.557 651.469 226.281H656.82C656.872 227.284 657.243 228.052 657.934 228.586C658.624 229.12 659.548 229.387 660.707 229.387C661.788 229.387 662.602 229.185 663.148 228.781C663.708 228.365 663.988 227.824 663.988 227.16Z" fill="#3D3D4D"/>
<path d="M892.637 64.75V69.8672H896.582V72.6602H892.637V85.7656C892.637 86.612 892.812 87.25 893.164 87.6797C893.516 88.0964 894.115 88.3047 894.961 88.3047C895.378 88.3047 895.951 88.2266 896.68 88.0703V91C895.729 91.2604 894.805 91.3906 893.906 91.3906C892.292 91.3906 891.074 90.9023 890.254 89.9258C889.434 88.9492 889.023 87.5625 889.023 85.7656V72.6602H885.176V69.8672H889.023V64.75H892.637ZM899.473 80.2383C899.473 78.168 899.876 76.306 900.684 74.6523C901.504 72.9987 902.637 71.7227 904.082 70.8242C905.54 69.9258 907.201 69.4766 909.062 69.4766C911.94 69.4766 914.264 70.4727 916.035 72.4648C917.819 74.457 918.711 77.1068 918.711 80.4141V80.668C918.711 82.7253 918.314 84.5742 917.52 86.2148C916.738 87.8424 915.612 89.112 914.141 90.0234C912.682 90.9349 911.003 91.3906 909.102 91.3906C906.237 91.3906 903.913 90.3945 902.129 88.4023C900.358 86.4102 899.473 83.7734 899.473 80.4922V80.2383ZM903.105 80.668C903.105 83.0117 903.646 84.8932 904.727 86.3125C905.82 87.7318 907.279 88.4414 909.102 88.4414C910.938 88.4414 912.396 87.7253 913.477 86.293C914.557 84.8477 915.098 82.8294 915.098 80.2383C915.098 77.9206 914.544 76.0456 913.438 74.6133C912.344 73.168 910.885 72.4453 909.062 72.4453C907.279 72.4453 905.84 73.1549 904.746 74.5742C903.652 75.9935 903.105 78.0247 903.105 80.668ZM922.969 88.2266C922.969 87.3281 923.268 86.599 923.867 86.0391C924.479 85.4792 925.241 85.1992 926.152 85.1992C927.077 85.1992 927.839 85.4792 928.438 86.0391C929.049 86.599 929.355 87.3281 929.355 88.2266C929.355 89.112 929.056 89.8346 928.457 90.3945C927.858 90.9414 927.09 91.2148 926.152 91.2148C925.228 91.2148 924.466 90.9414 923.867 90.3945C923.268 89.8346 922.969 89.112 922.969 88.2266ZM933.164 80.2773C933.164 76.931 933.887 74.2943 935.332 72.3672C936.777 70.4401 938.796 69.4766 941.387 69.4766C943.275 69.4766 944.863 70.2188 946.152 71.7031V61H952.754V91H946.836L946.504 88.7344C945.15 90.5052 943.431 91.3906 941.348 91.3906C938.835 91.3906 936.842 90.4271 935.371 88.5C933.9 86.5729 933.164 83.832 933.164 80.2773ZM939.746 80.6875C939.746 84.4375 940.84 86.3125 943.027 86.3125C944.486 86.3125 945.527 85.7005 946.152 84.4766V76.4297C945.553 75.1797 944.525 74.5547 943.066 74.5547C941.035 74.5547 939.935 76.1953 939.766 79.4766L939.746 80.6875ZM955.664 80.2383C955.664 78.1289 956.074 76.2539 956.895 74.6133C957.715 72.9596 958.893 71.6901 960.43 70.8047C961.966 69.9193 963.77 69.4766 965.84 69.4766C969.004 69.4766 971.497 70.4596 973.32 72.4258C975.143 74.3789 976.055 77.0417 976.055 80.4141V80.6484C976.055 83.9427 975.137 86.5599 973.301 88.5C971.478 90.4271 969.004 91.3906 965.879 91.3906C962.871 91.3906 960.456 90.4922 958.633 88.6953C956.81 86.8854 955.827 84.4375 955.684 81.3516L955.664 80.2383ZM962.246 80.6484C962.246 82.6016 962.552 84.0339 963.164 84.9453C963.776 85.8568 964.681 86.3125 965.879 86.3125C968.223 86.3125 969.421 84.5091 969.473 80.9023V80.2383C969.473 76.4492 968.262 74.5547 965.84 74.5547C963.639 74.5547 962.448 76.1888 962.266 79.457L962.246 80.6484Z" fill="#F9F9F9"/>
<line x1="431" y1="350.5" x2="1432" y2="350.5" stroke="#EBEBEB"/>
<line x1="431" y1="408.5" x2="1432" y2="408.5" stroke="#EBEBEB"/>
<rect x="431" y="314" width="16" height="16" rx="2" fill="#EBEBEB"/>
<path d="M445.222 372H432.778C431.797 372 431 372.797 431 373.778V386.222C431 387.203 431.797 388 432.778 388H445.222C446.203 388 447 387.203 447 386.222V373.778C447 372.797 446.203 372 445.222 372ZM438.171 383.983L434.816 380.628L436.073 379.372L438.052 381.35L441.873 376.764L443.239 377.902L438.171 383.983V383.983Z" fill="#5B9478"/>
<path d="M1108.77 216.49L1108.82 217.686C1109.55 216.771 1110.5 216.314 1111.67 216.314C1113.68 216.314 1114.69 217.448 1114.71 219.716V226H1113.08V219.707C1113.08 219.021 1112.92 218.515 1112.61 218.187C1112.3 217.858 1111.83 217.694 1111.18 217.694C1110.65 217.694 1110.19 217.835 1109.79 218.116C1109.39 218.397 1109.08 218.767 1108.86 219.224V226H1107.23V216.49H1108.77ZM1116.73 221.157C1116.73 220.226 1116.91 219.388 1117.28 218.644C1117.65 217.899 1118.16 217.325 1118.81 216.921C1119.46 216.517 1120.21 216.314 1121.05 216.314C1122.34 216.314 1123.39 216.763 1124.18 217.659C1124.99 218.556 1125.39 219.748 1125.39 221.236V221.351C1125.39 222.276 1125.21 223.108 1124.85 223.847C1124.5 224.579 1123.99 225.15 1123.33 225.561C1122.68 225.971 1121.92 226.176 1121.06 226.176C1119.78 226.176 1118.73 225.728 1117.93 224.831C1117.13 223.935 1116.73 222.748 1116.73 221.271V221.157ZM1118.37 221.351C1118.37 222.405 1118.61 223.252 1119.1 223.891C1119.59 224.529 1120.24 224.849 1121.06 224.849C1121.89 224.849 1122.55 224.526 1123.03 223.882C1123.52 223.231 1123.76 222.323 1123.76 221.157C1123.76 220.114 1123.51 219.271 1123.02 218.626C1122.52 217.976 1121.87 217.65 1121.05 217.65C1120.24 217.65 1119.6 217.97 1119.1 218.608C1118.61 219.247 1118.37 220.161 1118.37 221.351ZM1130.42 223.794L1132.78 216.49H1134.44L1131.03 226H1129.79L1126.35 216.49H1128.01L1130.42 223.794ZM1141.74 226C1141.64 225.812 1141.57 225.479 1141.51 224.998C1140.75 225.783 1139.85 226.176 1138.8 226.176C1137.86 226.176 1137.09 225.912 1136.49 225.385C1135.89 224.852 1135.59 224.178 1135.59 223.363C1135.59 222.373 1135.97 221.605 1136.72 221.061C1137.47 220.51 1138.53 220.234 1139.9 220.234H1141.48V219.487C1141.48 218.919 1141.31 218.468 1140.97 218.134C1140.63 217.794 1140.13 217.624 1139.47 217.624C1138.89 217.624 1138.4 217.771 1138.01 218.063C1137.62 218.356 1137.42 218.711 1137.42 219.127H1135.79C1135.79 218.652 1135.95 218.195 1136.29 217.756C1136.63 217.311 1137.08 216.959 1137.66 216.701C1138.24 216.443 1138.87 216.314 1139.57 216.314C1140.66 216.314 1141.52 216.59 1142.14 217.141C1142.76 217.686 1143.08 218.438 1143.11 219.399V223.776C1143.11 224.649 1143.22 225.344 1143.44 225.859V226H1141.74ZM1139.04 224.761C1139.55 224.761 1140.03 224.629 1140.49 224.365C1140.95 224.102 1141.28 223.759 1141.48 223.337V221.386H1140.21C1138.21 221.386 1137.22 221.969 1137.22 223.135C1137.22 223.645 1137.39 224.043 1137.73 224.33C1138.07 224.617 1138.5 224.761 1139.04 224.761ZM1152.33 214.188V216.49H1154.1V217.747H1152.33V223.645C1152.33 224.025 1152.41 224.312 1152.56 224.506C1152.72 224.693 1152.99 224.787 1153.37 224.787C1153.56 224.787 1153.82 224.752 1154.15 224.682V226C1153.72 226.117 1153.3 226.176 1152.9 226.176C1152.17 226.176 1151.62 225.956 1151.25 225.517C1150.89 225.077 1150.7 224.453 1150.7 223.645V217.747H1148.97V216.49H1150.7V214.188H1152.33ZM1161.88 226C1161.79 225.812 1161.71 225.479 1161.65 224.998C1160.9 225.783 1159.99 226.176 1158.95 226.176C1158.01 226.176 1157.24 225.912 1156.63 225.385C1156.04 224.852 1155.74 224.178 1155.74 223.363C1155.74 222.373 1156.11 221.605 1156.86 221.061C1157.62 220.51 1158.68 220.234 1160.04 220.234H1161.63V219.487C1161.63 218.919 1161.46 218.468 1161.12 218.134C1160.78 217.794 1160.28 217.624 1159.61 217.624C1159.03 217.624 1158.55 217.771 1158.15 218.063C1157.76 218.356 1157.57 218.711 1157.57 219.127H1155.93C1155.93 218.652 1156.1 218.195 1156.43 217.756C1156.77 217.311 1157.23 216.959 1157.8 216.701C1158.38 216.443 1159.02 216.314 1159.71 216.314C1160.81 216.314 1161.66 216.59 1162.29 217.141C1162.91 217.686 1163.23 218.438 1163.25 219.399V223.776C1163.25 224.649 1163.36 225.344 1163.59 225.859V226H1161.88ZM1159.18 224.761C1159.69 224.761 1160.18 224.629 1160.63 224.365C1161.09 224.102 1161.42 223.759 1161.63 223.337V221.386H1160.35C1158.36 221.386 1157.36 221.969 1157.36 223.135C1157.36 223.645 1157.53 224.043 1157.87 224.33C1158.21 224.617 1158.65 224.761 1159.18 224.761ZM1171.34 223.478C1171.34 223.038 1171.17 222.698 1170.84 222.458C1170.51 222.212 1169.93 222.001 1169.11 221.825C1168.29 221.649 1167.63 221.438 1167.15 221.192C1166.67 220.946 1166.31 220.653 1166.07 220.313C1165.84 219.974 1165.73 219.569 1165.73 219.101C1165.73 218.321 1166.06 217.662 1166.71 217.123C1167.38 216.584 1168.22 216.314 1169.25 216.314C1170.32 216.314 1171.2 216.593 1171.87 217.149C1172.54 217.706 1172.88 218.418 1172.88 219.285H1171.24C1171.24 218.84 1171.05 218.456 1170.67 218.134C1170.29 217.812 1169.82 217.65 1169.25 217.65C1168.65 217.65 1168.19 217.779 1167.86 218.037C1167.52 218.295 1167.36 218.632 1167.36 219.048C1167.36 219.44 1167.51 219.736 1167.82 219.936C1168.13 220.135 1168.69 220.325 1169.5 220.507C1170.32 220.688 1170.97 220.905 1171.48 221.157C1171.98 221.409 1172.35 221.714 1172.59 222.071C1172.84 222.423 1172.96 222.854 1172.96 223.363C1172.96 224.213 1172.62 224.896 1171.94 225.411C1171.26 225.921 1170.38 226.176 1169.3 226.176C1168.54 226.176 1167.86 226.041 1167.28 225.771C1166.69 225.502 1166.23 225.127 1165.9 224.646C1165.57 224.16 1165.41 223.636 1165.41 223.073H1167.03C1167.06 223.618 1167.28 224.052 1167.68 224.374C1168.09 224.69 1168.63 224.849 1169.3 224.849C1169.91 224.849 1170.41 224.726 1170.78 224.479C1171.15 224.228 1171.34 223.894 1171.34 223.478ZM1177.74 221.597L1176.72 222.66V226H1175.09V212.5H1176.72V220.665L1177.59 219.619L1180.55 216.49H1182.53L1178.83 220.463L1182.96 226H1181.05L1177.74 221.597Z" fill="#5F5F7C"/>
<rect x="240" y="547" width="1862" height="966" rx="50" fill="#21212B"/>
<path d="M240 597C240 569.386 262.386 547 290 547H2052C2079.61 547 2102 569.386 2102 597V831H240V597Z" fill="#17181F"/>
<rect x="609" y="670" width="1122" height="354" rx="20" fill="#272833"/>
<path d="M1665.6 861H1660.8C1659.92 861 1659.2 861.718 1659.2 862.6V864.2H1656V865.8H1657.6V875.4C1657.6 876.282 1658.32 877 1659.2 877H1667.2C1668.08 877 1668.8 876.282 1668.8 875.4V865.8H1670.4V864.2H1667.2V862.6C1667.2 861.718 1666.48 861 1665.6 861ZM1660.8 862.6H1665.6V864.2H1660.8V862.6ZM1667.2 875.4H1659.2V865.8H1667.2V875.4Z" fill="#BE6672"/>
<path d="M1665.6 918H1660.8C1659.92 918 1659.2 918.718 1659.2 919.6V921.2H1656V922.8H1657.6V932.4C1657.6 933.282 1658.32 934 1659.2 934H1667.2C1668.08 934 1668.8 933.282 1668.8 932.4V922.8H1670.4V921.2H1667.2V919.6C1667.2 918.718 1666.48 918 1665.6 918ZM1660.8 919.6H1665.6V921.2H1660.8V919.6ZM1667.2 932.4H1659.2V922.8H1667.2V932.4Z" fill="#BE6672"/>
<path d="M701.76 867.49L701.804 868.545C702.501 867.725 703.441 867.314 704.625 867.314C705.955 867.314 706.86 867.824 707.341 868.844C707.657 868.387 708.067 868.018 708.571 867.736C709.081 867.455 709.682 867.314 710.373 867.314C712.459 867.314 713.52 868.419 713.555 870.628V877H711.929V870.725C711.929 870.045 711.773 869.538 711.463 869.204C711.152 868.864 710.631 868.694 709.898 868.694C709.295 868.694 708.794 868.876 708.396 869.239C707.997 869.597 707.766 870.08 707.701 870.689V877H706.066V870.769C706.066 869.386 705.39 868.694 704.036 868.694C702.97 868.694 702.24 869.148 701.848 870.057V877H700.222V867.49H701.76ZM721.887 877C721.793 876.812 721.717 876.479 721.658 875.998C720.902 876.783 720 877.176 718.951 877.176C718.014 877.176 717.243 876.912 716.64 876.385C716.042 875.852 715.743 875.178 715.743 874.363C715.743 873.373 716.118 872.605 716.868 872.061C717.624 871.51 718.685 871.234 720.05 871.234H721.632V870.487C721.632 869.919 721.462 869.468 721.122 869.134C720.782 868.794 720.281 868.624 719.619 868.624C719.039 868.624 718.553 868.771 718.16 869.063C717.768 869.356 717.571 869.711 717.571 870.127H715.937C715.937 869.652 716.104 869.195 716.438 868.756C716.777 868.311 717.234 867.959 717.809 867.701C718.389 867.443 719.024 867.314 719.716 867.314C720.812 867.314 721.67 867.59 722.291 868.141C722.912 868.686 723.234 869.438 723.258 870.399V874.776C723.258 875.649 723.369 876.344 723.592 876.859V877H721.887ZM719.188 875.761C719.698 875.761 720.182 875.629 720.639 875.365C721.096 875.102 721.427 874.759 721.632 874.337V872.386H720.357C718.365 872.386 717.369 872.969 717.369 874.135C717.369 874.645 717.539 875.043 717.879 875.33C718.219 875.617 718.655 875.761 719.188 875.761ZM730.403 868.949C730.157 868.908 729.891 868.888 729.604 868.888C728.537 868.888 727.813 869.342 727.433 870.25V877H725.807V867.49H727.389L727.415 868.589C727.948 867.739 728.704 867.314 729.683 867.314C729.999 867.314 730.239 867.355 730.403 867.438V868.949ZM735.545 875.849C736.125 875.849 736.632 875.673 737.065 875.321C737.499 874.97 737.739 874.53 737.786 874.003H739.324C739.295 874.548 739.107 875.066 738.762 875.559C738.416 876.051 737.953 876.443 737.373 876.736C736.799 877.029 736.189 877.176 735.545 877.176C734.25 877.176 733.219 876.745 732.451 875.884C731.689 875.017 731.309 873.833 731.309 872.333V872.061C731.309 871.135 731.479 870.312 731.818 869.591C732.158 868.87 732.645 868.311 733.277 867.912C733.916 867.514 734.669 867.314 735.536 867.314C736.603 867.314 737.487 867.634 738.19 868.272C738.899 868.911 739.277 869.74 739.324 870.76H737.786C737.739 870.145 737.505 869.641 737.083 869.248C736.667 868.85 736.151 868.65 735.536 868.65C734.71 868.65 734.068 868.949 733.611 869.547C733.16 870.139 732.935 870.997 732.935 872.122V872.43C732.935 873.525 733.16 874.369 733.611 874.961C734.062 875.553 734.707 875.849 735.545 875.849ZM747.023 877C746.93 876.812 746.854 876.479 746.795 875.998C746.039 876.783 745.137 877.176 744.088 877.176C743.15 877.176 742.38 876.912 741.776 876.385C741.179 875.852 740.88 875.178 740.88 874.363C740.88 873.373 741.255 872.605 742.005 872.061C742.761 871.51 743.821 871.234 745.187 871.234H746.769V870.487C746.769 869.919 746.599 869.468 746.259 869.134C745.919 868.794 745.418 868.624 744.756 868.624C744.176 868.624 743.689 868.771 743.297 869.063C742.904 869.356 742.708 869.711 742.708 870.127H741.073C741.073 869.652 741.24 869.195 741.574 868.756C741.914 868.311 742.371 867.959 742.945 867.701C743.525 867.443 744.161 867.314 744.853 867.314C745.948 867.314 746.807 867.59 747.428 868.141C748.049 868.686 748.371 869.438 748.395 870.399V874.776C748.395 875.649 748.506 876.344 748.729 876.859V877H747.023ZM744.325 875.761C744.835 875.761 745.318 875.629 745.775 875.365C746.232 875.102 746.563 874.759 746.769 874.337V872.386H745.494C743.502 872.386 742.506 872.969 742.506 874.135C742.506 874.645 742.676 875.043 743.016 875.33C743.355 875.617 743.792 875.761 744.325 875.761ZM750.548 872.166C750.548 870.707 750.894 869.535 751.585 868.65C752.276 867.76 753.182 867.314 754.301 867.314C755.414 867.314 756.296 867.695 756.946 868.457V863.5H758.572V877H757.078L756.999 875.98C756.349 876.777 755.443 877.176 754.283 877.176C753.182 877.176 752.282 876.725 751.585 875.822C750.894 874.92 750.548 873.742 750.548 872.289V872.166ZM752.174 872.351C752.174 873.429 752.396 874.272 752.842 874.882C753.287 875.491 753.902 875.796 754.688 875.796C755.719 875.796 756.472 875.333 756.946 874.407V870.039C756.46 869.143 755.713 868.694 754.705 868.694C753.908 868.694 753.287 869.002 752.842 869.617C752.396 870.232 752.174 871.144 752.174 872.351ZM766.975 877C766.881 876.812 766.805 876.479 766.746 875.998C765.99 876.783 765.088 877.176 764.039 877.176C763.102 877.176 762.331 876.912 761.728 876.385C761.13 875.852 760.831 875.178 760.831 874.363C760.831 873.373 761.206 872.605 761.956 872.061C762.712 871.51 763.772 871.234 765.138 871.234H766.72V870.487C766.72 869.919 766.55 869.468 766.21 869.134C765.87 868.794 765.369 868.624 764.707 868.624C764.127 868.624 763.641 868.771 763.248 869.063C762.855 869.356 762.659 869.711 762.659 870.127H761.024C761.024 869.652 761.191 869.195 761.525 868.756C761.865 868.311 762.322 867.959 762.896 867.701C763.477 867.443 764.112 867.314 764.804 867.314C765.899 867.314 766.758 867.59 767.379 868.141C768 868.686 768.322 869.438 768.346 870.399V874.776C768.346 875.649 768.457 876.344 768.68 876.859V877H766.975ZM764.276 875.761C764.786 875.761 765.27 875.629 765.727 875.365C766.184 875.102 766.515 874.759 766.72 874.337V872.386H765.445C763.453 872.386 762.457 872.969 762.457 874.135C762.457 874.645 762.627 875.043 762.967 875.33C763.307 875.617 763.743 875.761 764.276 875.761Z" fill="#F9F9F9"/>
<path d="M701.76 925.49L701.804 926.545C702.501 925.725 703.441 925.314 704.625 925.314C705.955 925.314 706.86 925.824 707.341 926.844C707.657 926.387 708.067 926.018 708.571 925.736C709.081 925.455 709.682 925.314 710.373 925.314C712.459 925.314 713.52 926.419 713.555 928.628V935H711.929V928.725C711.929 928.045 711.773 927.538 711.463 927.204C711.152 926.864 710.631 926.694 709.898 926.694C709.295 926.694 708.794 926.876 708.396 927.239C707.997 927.597 707.766 928.08 707.701 928.689V935H706.066V928.769C706.066 927.386 705.39 926.694 704.036 926.694C702.97 926.694 702.24 927.148 701.848 928.057V935H700.222V925.49H701.76ZM721.887 935C721.793 934.812 721.717 934.479 721.658 933.998C720.902 934.783 720 935.176 718.951 935.176C718.014 935.176 717.243 934.912 716.64 934.385C716.042 933.852 715.743 933.178 715.743 932.363C715.743 931.373 716.118 930.605 716.868 930.061C717.624 929.51 718.685 929.234 720.05 929.234H721.632V928.487C721.632 927.919 721.462 927.468 721.122 927.134C720.782 926.794 720.281 926.624 719.619 926.624C719.039 926.624 718.553 926.771 718.16 927.063C717.768 927.356 717.571 927.711 717.571 928.127H715.937C715.937 927.652 716.104 927.195 716.438 926.756C716.777 926.311 717.234 925.959 717.809 925.701C718.389 925.443 719.024 925.314 719.716 925.314C720.812 925.314 721.67 925.59 722.291 926.141C722.912 926.686 723.234 927.438 723.258 928.399V932.776C723.258 933.649 723.369 934.344 723.592 934.859V935H721.887ZM719.188 933.761C719.698 933.761 720.182 933.629 720.639 933.365C721.096 933.102 721.427 932.759 721.632 932.337V930.386H720.357C718.365 930.386 717.369 930.969 717.369 932.135C717.369 932.645 717.539 933.043 717.879 933.33C718.219 933.617 718.655 933.761 719.188 933.761ZM730.403 926.949C730.157 926.908 729.891 926.888 729.604 926.888C728.537 926.888 727.813 927.342 727.433 928.25V935H725.807V925.49H727.389L727.415 926.589C727.948 925.739 728.704 925.314 729.683 925.314C729.999 925.314 730.239 925.355 730.403 925.438V926.949ZM735.545 933.849C736.125 933.849 736.632 933.673 737.065 933.321C737.499 932.97 737.739 932.53 737.786 932.003H739.324C739.295 932.548 739.107 933.066 738.762 933.559C738.416 934.051 737.953 934.443 737.373 934.736C736.799 935.029 736.189 935.176 735.545 935.176C734.25 935.176 733.219 934.745 732.451 933.884C731.689 933.017 731.309 931.833 731.309 930.333V930.061C731.309 929.135 731.479 928.312 731.818 927.591C732.158 926.87 732.645 926.311 733.277 925.912C733.916 925.514 734.669 925.314 735.536 925.314C736.603 925.314 737.487 925.634 738.19 926.272C738.899 926.911 739.277 927.74 739.324 928.76H737.786C737.739 928.145 737.505 927.641 737.083 927.248C736.667 926.85 736.151 926.65 735.536 926.65C734.71 926.65 734.068 926.949 733.611 927.547C733.16 928.139 732.935 928.997 732.935 930.122V930.43C732.935 931.525 733.16 932.369 733.611 932.961C734.062 933.553 734.707 933.849 735.545 933.849ZM747.023 935C746.93 934.812 746.854 934.479 746.795 933.998C746.039 934.783 745.137 935.176 744.088 935.176C743.15 935.176 742.38 934.912 741.776 934.385C741.179 933.852 740.88 933.178 740.88 932.363C740.88 931.373 741.255 930.605 742.005 930.061C742.761 929.51 743.821 929.234 745.187 929.234H746.769V928.487C746.769 927.919 746.599 927.468 746.259 927.134C745.919 926.794 745.418 926.624 744.756 926.624C744.176 926.624 743.689 926.771 743.297 927.063C742.904 927.356 742.708 927.711 742.708 928.127H741.073C741.073 927.652 741.24 927.195 741.574 926.756C741.914 926.311 742.371 925.959 742.945 925.701C743.525 925.443 744.161 925.314 744.853 925.314C745.948 925.314 746.807 925.59 747.428 926.141C748.049 926.686 748.371 927.438 748.395 928.399V932.776C748.395 933.649 748.506 934.344 748.729 934.859V935H747.023ZM744.325 933.761C744.835 933.761 745.318 933.629 745.775 933.365C746.232 933.102 746.563 932.759 746.769 932.337V930.386H745.494C743.502 930.386 742.506 930.969 742.506 932.135C742.506 932.645 742.676 933.043 743.016 933.33C743.355 933.617 743.792 933.761 744.325 933.761ZM750.548 930.166C750.548 928.707 750.894 927.535 751.585 926.65C752.276 925.76 753.182 925.314 754.301 925.314C755.414 925.314 756.296 925.695 756.946 926.457V921.5H758.572V935H757.078L756.999 933.98C756.349 934.777 755.443 935.176 754.283 935.176C753.182 935.176 752.282 934.725 751.585 933.822C750.894 932.92 750.548 931.742 750.548 930.289V930.166ZM752.174 930.351C752.174 931.429 752.396 932.272 752.842 932.882C753.287 933.491 753.902 933.796 754.688 933.796C755.719 933.796 756.472 933.333 756.946 932.407V928.039C756.46 927.143 755.713 926.694 754.705 926.694C753.908 926.694 753.287 927.002 752.842 927.617C752.396 928.232 752.174 929.144 752.174 930.351ZM766.975 935C766.881 934.812 766.805 934.479 766.746 933.998C765.99 934.783 765.088 935.176 764.039 935.176C763.102 935.176 762.331 934.912 761.728 934.385C761.13 933.852 760.831 933.178 760.831 932.363C760.831 931.373 761.206 930.605 761.956 930.061C762.712 929.51 763.772 929.234 765.138 929.234H766.72V928.487C766.72 927.919 766.55 927.468 766.21 927.134C765.87 926.794 765.369 926.624 764.707 926.624C764.127 926.624 763.641 926.771 763.248 927.063C762.855 927.356 762.659 927.711 762.659 928.127H761.024C761.024 927.652 761.191 927.195 761.525 926.756C761.865 926.311 762.322 925.959 762.896 925.701C763.477 925.443 764.112 925.314 764.804 925.314C765.899 925.314 766.758 925.59 767.379 926.141C768 926.686 768.322 927.438 768.346 928.399V932.776C768.346 933.649 768.457 934.344 768.68 934.859V935H766.975ZM764.276 933.761C764.786 933.761 765.27 933.629 765.727 933.365C766.184 933.102 766.515 932.759 766.72 932.337V930.386H765.445C763.453 930.386 762.457 930.969 762.457 932.135C762.457 932.645 762.627 933.043 762.967 933.33C763.307 933.617 763.743 933.761 764.276 933.761Z" fill="#878989"/>
<path d="M699 930.5H769.664V931.396H699V930.5Z" fill="#878989"/>
<rect x="1325" y="745" width="297" height="44" rx="10" fill="#414052"/>
<rect x="1627" y="745" width="45" height="44" rx="10" fill="#276CAC"/>
<path d="M1648 766.333L1650 768.333L1656.67 761.667" stroke="#F9F9F9" stroke-width="2" stroke-linecap="round" stroke-linejoin="round"/>
<path d="M1656 767V771.667C1656 772.02 1655.86 772.359 1655.61 772.609C1655.36 772.86 1655.02 773 1654.67 773H1645.33C1644.98 773 1644.64 772.86 1644.39 772.609C1644.14 772.359 1644 772.02 1644 771.667V762.333C1644 761.98 1644.14 761.641 1644.39 761.391C1644.64 761.14 1644.98 761 1645.33 761H1652.67" stroke="#F9F9F9" stroke-width="2" stroke-linecap="round" stroke-linejoin="round"/>
<path d="M681.195 751.562L688.5 772.188L695.766 751.562H703.461V780H697.582V772.227L698.168 758.809L690.492 780H686.469L678.812 758.828L679.398 772.227V780H673.539V751.562H681.195ZM714.164 780H708.5V758.867H714.164V780ZM708.168 753.398C708.168 752.552 708.448 751.855 709.008 751.309C709.581 750.762 710.355 750.488 711.332 750.488C712.296 750.488 713.064 750.762 713.637 751.309C714.21 751.855 714.496 752.552 714.496 753.398C714.496 754.258 714.203 754.961 713.617 755.508C713.044 756.055 712.283 756.328 711.332 756.328C710.382 756.328 709.613 756.055 709.027 755.508C708.454 754.961 708.168 754.258 708.168 753.398ZM724.027 758.867L724.203 761.309C725.714 759.421 727.738 758.477 730.277 758.477C732.517 758.477 734.184 759.134 735.277 760.449C736.371 761.764 736.931 763.73 736.957 766.348V780H731.312V766.484C731.312 765.286 731.052 764.421 730.531 763.887C730.01 763.34 729.145 763.066 727.934 763.066C726.345 763.066 725.154 763.743 724.359 765.098V780H718.715V758.867H724.027ZM746.762 761.172C748.259 759.375 750.141 758.477 752.406 758.477C756.99 758.477 759.314 761.139 759.379 766.465V780H753.734V766.621C753.734 765.41 753.474 764.518 752.953 763.945C752.432 763.359 751.566 763.066 750.355 763.066C748.702 763.066 747.504 763.704 746.762 764.98V780H741.117V750H746.762V761.172ZM775.883 780C775.622 779.492 775.434 778.861 775.316 778.105C773.949 779.629 772.172 780.391 769.984 780.391C767.914 780.391 766.195 779.792 764.828 778.594C763.474 777.396 762.797 775.885 762.797 774.062C762.797 771.823 763.624 770.104 765.277 768.906C766.944 767.708 769.346 767.103 772.484 767.09H775.082V765.879C775.082 764.902 774.828 764.121 774.32 763.535C773.826 762.949 773.038 762.656 771.957 762.656C771.007 762.656 770.258 762.884 769.711 763.34C769.177 763.796 768.91 764.421 768.91 765.215H763.266C763.266 763.991 763.643 762.858 764.398 761.816C765.154 760.775 766.221 759.961 767.602 759.375C768.982 758.776 770.531 758.477 772.25 758.477C774.854 758.477 776.918 759.134 778.441 760.449C779.978 761.751 780.746 763.587 780.746 765.957V775.117C780.759 777.122 781.039 778.639 781.586 779.668V780H775.883ZM771.215 776.074C772.048 776.074 772.816 775.892 773.52 775.527C774.223 775.15 774.743 774.648 775.082 774.023V770.391H772.973C770.147 770.391 768.643 771.367 768.461 773.32L768.441 773.652C768.441 774.355 768.689 774.935 769.184 775.391C769.678 775.846 770.355 776.074 771.215 776.074ZM796.527 774.16C796.527 773.47 796.182 772.93 795.492 772.539C794.815 772.135 793.721 771.777 792.211 771.465C787.185 770.41 784.672 768.275 784.672 765.059C784.672 763.184 785.447 761.621 786.996 760.371C788.559 759.108 790.596 758.477 793.109 758.477C795.792 758.477 797.934 759.108 799.535 760.371C801.15 761.634 801.957 763.275 801.957 765.293H796.312C796.312 764.486 796.052 763.822 795.531 763.301C795.01 762.767 794.197 762.5 793.09 762.5C792.139 762.5 791.404 762.715 790.883 763.145C790.362 763.574 790.102 764.121 790.102 764.785C790.102 765.41 790.395 765.918 790.98 766.309C791.579 766.686 792.582 767.018 793.988 767.305C795.395 767.578 796.579 767.891 797.543 768.242C800.525 769.336 802.016 771.23 802.016 773.926C802.016 775.853 801.189 777.415 799.535 778.613C797.882 779.798 795.746 780.391 793.129 780.391C791.358 780.391 789.783 780.078 788.402 779.453C787.035 778.815 785.961 777.949 785.18 776.855C784.398 775.749 784.008 774.557 784.008 773.281H789.359C789.411 774.284 789.783 775.052 790.473 775.586C791.163 776.12 792.087 776.387 793.246 776.387C794.327 776.387 795.141 776.185 795.688 775.781C796.247 775.365 796.527 774.824 796.527 774.16ZM822.387 753.672V758.867H826V763.008H822.387V773.555C822.387 774.336 822.536 774.896 822.836 775.234C823.135 775.573 823.708 775.742 824.555 775.742C825.18 775.742 825.733 775.697 826.215 775.605V779.883C825.108 780.221 823.969 780.391 822.797 780.391C818.839 780.391 816.82 778.392 816.742 774.395V763.008H813.656V758.867H816.742V753.672H822.387ZM841.391 780C841.13 779.492 840.941 778.861 840.824 778.105C839.457 779.629 837.68 780.391 835.492 780.391C833.422 780.391 831.703 779.792 830.336 778.594C828.982 777.396 828.305 775.885 828.305 774.062C828.305 771.823 829.132 770.104 830.785 768.906C832.452 767.708 834.854 767.103 837.992 767.09H840.59V765.879C840.59 764.902 840.336 764.121 839.828 763.535C839.333 762.949 838.546 762.656 837.465 762.656C836.514 762.656 835.766 762.884 835.219 763.34C834.685 763.796 834.418 764.421 834.418 765.215H828.773C828.773 763.991 829.151 762.858 829.906 761.816C830.661 760.775 831.729 759.961 833.109 759.375C834.49 758.776 836.039 758.477 837.758 758.477C840.362 758.477 842.426 759.134 843.949 760.449C845.486 761.751 846.254 763.587 846.254 765.957V775.117C846.267 777.122 846.547 778.639 847.094 779.668V780H841.391ZM836.723 776.074C837.556 776.074 838.324 775.892 839.027 775.527C839.73 775.15 840.251 774.648 840.59 774.023V770.391H838.48C835.655 770.391 834.151 771.367 833.969 773.32L833.949 773.652C833.949 774.355 834.197 774.935 834.691 775.391C835.186 775.846 835.863 776.074 836.723 776.074ZM862.035 774.16C862.035 773.47 861.69 772.93 861 772.539C860.323 772.135 859.229 771.777 857.719 771.465C852.693 770.41 850.18 768.275 850.18 765.059C850.18 763.184 850.954 761.621 852.504 760.371C854.066 759.108 856.104 758.477 858.617 758.477C861.299 758.477 863.441 759.108 865.043 760.371C866.658 761.634 867.465 763.275 867.465 765.293H861.82C861.82 764.486 861.56 763.822 861.039 763.301C860.518 762.767 859.704 762.5 858.598 762.5C857.647 762.5 856.911 762.715 856.391 763.145C855.87 763.574 855.609 764.121 855.609 764.785C855.609 765.41 855.902 765.918 856.488 766.309C857.087 766.686 858.09 767.018 859.496 767.305C860.902 767.578 862.087 767.891 863.051 768.242C866.033 769.336 867.523 771.23 867.523 773.926C867.523 775.853 866.697 777.415 865.043 778.613C863.389 779.798 861.254 780.391 858.637 780.391C856.866 780.391 855.29 780.078 853.91 779.453C852.543 778.815 851.469 777.949 850.688 776.855C849.906 775.749 849.516 774.557 849.516 773.281H854.867C854.919 774.284 855.29 775.052 855.98 775.586C856.671 776.12 857.595 776.387 858.754 776.387C859.835 776.387 860.648 776.185 861.195 775.781C861.755 775.365 862.035 774.824 862.035 774.16ZM878.852 771.523L876.82 773.555V780H871.176V750H876.82V766.621L877.914 765.215L883.324 758.867H890.102L882.465 767.676L890.766 780H884.281L878.852 771.523ZM903.988 774.16C903.988 773.47 903.643 772.93 902.953 772.539C902.276 772.135 901.182 771.777 899.672 771.465C894.646 770.41 892.133 768.275 892.133 765.059C892.133 763.184 892.908 761.621 894.457 760.371C896.02 759.108 898.057 758.477 900.57 758.477C903.253 758.477 905.395 759.108 906.996 760.371C908.611 761.634 909.418 763.275 909.418 765.293H903.773C903.773 764.486 903.513 763.822 902.992 763.301C902.471 762.767 901.658 762.5 900.551 762.5C899.6 762.5 898.865 762.715 898.344 763.145C897.823 763.574 897.562 764.121 897.562 764.785C897.562 765.41 897.855 765.918 898.441 766.309C899.04 766.686 900.043 767.018 901.449 767.305C902.855 767.578 904.04 767.891 905.004 768.242C907.986 769.336 909.477 771.23 909.477 773.926C909.477 775.853 908.65 777.415 906.996 778.613C905.342 779.798 903.207 780.391 900.59 780.391C898.819 780.391 897.243 780.078 895.863 779.453C894.496 778.815 893.422 777.949 892.641 776.855C891.859 775.749 891.469 774.557 891.469 773.281H896.82C896.872 774.284 897.243 775.052 897.934 775.586C898.624 776.12 899.548 776.387 900.707 776.387C901.788 776.387 902.602 776.185 903.148 775.781C903.708 775.365 903.988 774.824 903.988 774.16Z" fill="#F9F9F9"/>
<path d="M1132.64 611.75V616.867H1136.58V619.66H1132.64V632.766C1132.64 633.612 1132.81 634.25 1133.16 634.68C1133.52 635.096 1134.11 635.305 1134.96 635.305C1135.38 635.305 1135.95 635.227 1136.68 635.07V638C1135.73 638.26 1134.8 638.391 1133.91 638.391C1132.29 638.391 1131.07 637.902 1130.25 636.926C1129.43 635.949 1129.02 634.562 1129.02 632.766V619.66H1125.18V616.867H1129.02V611.75H1132.64ZM1139.47 627.238C1139.47 625.168 1139.88 623.306 1140.68 621.652C1141.5 619.999 1142.64 618.723 1144.08 617.824C1145.54 616.926 1147.2 616.477 1149.06 616.477C1151.94 616.477 1154.26 617.473 1156.04 619.465C1157.82 621.457 1158.71 624.107 1158.71 627.414V627.668C1158.71 629.725 1158.31 631.574 1157.52 633.215C1156.74 634.842 1155.61 636.112 1154.14 637.023C1152.68 637.935 1151 638.391 1149.1 638.391C1146.24 638.391 1143.91 637.395 1142.13 635.402C1140.36 633.41 1139.47 630.773 1139.47 627.492V627.238ZM1143.11 627.668C1143.11 630.012 1143.65 631.893 1144.73 633.312C1145.82 634.732 1147.28 635.441 1149.1 635.441C1150.94 635.441 1152.4 634.725 1153.48 633.293C1154.56 631.848 1155.1 629.829 1155.1 627.238C1155.1 624.921 1154.54 623.046 1153.44 621.613C1152.34 620.168 1150.89 619.445 1149.06 619.445C1147.28 619.445 1145.84 620.155 1144.75 621.574C1143.65 622.993 1143.11 625.025 1143.11 627.668ZM1162.97 635.227C1162.97 634.328 1163.27 633.599 1163.87 633.039C1164.48 632.479 1165.24 632.199 1166.15 632.199C1167.08 632.199 1167.84 632.479 1168.44 633.039C1169.05 633.599 1169.36 634.328 1169.36 635.227C1169.36 636.112 1169.06 636.835 1168.46 637.395C1167.86 637.941 1167.09 638.215 1166.15 638.215C1165.23 638.215 1164.47 637.941 1163.87 637.395C1163.27 636.835 1162.97 636.112 1162.97 635.227ZM1173.16 627.277C1173.16 623.931 1173.89 621.294 1175.33 619.367C1176.78 617.44 1178.8 616.477 1181.39 616.477C1183.27 616.477 1184.86 617.219 1186.15 618.703V608H1192.75V638H1186.84L1186.5 635.734C1185.15 637.505 1183.43 638.391 1181.35 638.391C1178.83 638.391 1176.84 637.427 1175.37 635.5C1173.9 633.573 1173.16 630.832 1173.16 627.277ZM1179.75 627.688C1179.75 631.438 1180.84 633.312 1183.03 633.312C1184.49 633.312 1185.53 632.701 1186.15 631.477V623.43C1185.55 622.18 1184.52 621.555 1183.07 621.555C1181.04 621.555 1179.93 623.195 1179.77 626.477L1179.75 627.688ZM1195.66 627.238C1195.66 625.129 1196.07 623.254 1196.89 621.613C1197.71 619.96 1198.89 618.69 1200.43 617.805C1201.97 616.919 1203.77 616.477 1205.84 616.477C1209 616.477 1211.5 617.46 1213.32 619.426C1215.14 621.379 1216.05 624.042 1216.05 627.414V627.648C1216.05 630.943 1215.14 633.56 1213.3 635.5C1211.48 637.427 1209 638.391 1205.88 638.391C1202.87 638.391 1200.46 637.492 1198.63 635.695C1196.81 633.885 1195.83 631.438 1195.68 628.352L1195.66 627.238ZM1202.25 627.648C1202.25 629.602 1202.55 631.034 1203.16 631.945C1203.78 632.857 1204.68 633.312 1205.88 633.312C1208.22 633.312 1209.42 631.509 1209.47 627.902V627.238C1209.47 623.449 1208.26 621.555 1205.84 621.555C1203.64 621.555 1202.45 623.189 1202.27 626.457L1202.25 627.648Z" fill="#F9F9F9"/>
<line x1="671" y1="897.5" x2="1672" y2="897.5" stroke="#414052"/>
<line x1="671" y1="955.5" x2="1672" y2="955.5" stroke="#414052"/>
<rect x="671" y="861" width="16" height="16" rx="2" fill="#414052"/>
<path d="M685.222 919H672.778C671.797 919 671 919.797 671 920.778V933.222C671 934.203 671.797 935 672.778 935H685.222C686.203 935 687 934.203 687 933.222V920.778C687 919.797 686.203 919 685.222 919ZM678.171 930.983L674.816 927.628L676.073 926.372L678.052 928.35L681.873 923.764L683.239 924.902L678.171 930.983V930.983Z" fill="#5B9478"/>
</svg>
